<?xml version="1.0" encoding="UTF-8"?>
<svg version="1.1" xmlns="http://www.w3.org/2000/svg" width="196" height="196">
<path d="M0 0 C64.68 0 129.36 0 196 0 C196 64.68 196 129.36 196 196 C131.32 196 66.64 196 0 196 C0 131.32 0 66.64 0 0 Z " fill="#2282C2" transform="translate(0,0)"/>
<path d="M0 0 C64.68 0 129.36 0 196 0 C196 64.68 196 129.36 196 196 C131.32 196 66.64 196 0 196 C0 131.32 0 66.64 0 0 Z M50.8125 37.1875 C34.7646449 55.75316438 30.21166812 74.55417322 31.69726562 98.79394531 C33.02331284 112.83721308 38.98404152 126.18874125 48 137 C47.34 138.65 46.68 140.3 46 142 C44.700625 141.85304687 44.700625 141.85304687 43.375 141.703125 C39.07016151 142.08179135 37.04217808 143.92719374 34 146.75 C32.86361086 147.76078736 31.72687968 148.77119027 30.58984375 149.78125 C30.00444824 150.30976563 29.41905273 150.83828125 28.81591797 151.3828125 C26.9893838 153.00945438 25.1307662 154.58805525 23.25390625 156.15625 C22.32868164 156.93210449 22.32868164 156.93210449 21.38476562 157.72363281 C20.20724442 158.70994881 19.02769245 159.69384768 17.84570312 160.67480469 C9.88816095 167.12918249 9.88816095 167.12918249 5.796875 175.98828125 C5.69953071 180.81493582 5.72806659 184.16394014 9 188 C12.09902294 190.81729359 14.68198209 191.26949106 18.75 191.1875 C28.33959698 189.83785302 33.98126119 181.06984711 39.59375 173.92578125 C41.31766023 171.82966313 43.01462721 169.9087076 44.90625 167.98046875 C50.58287973 162.18211067 54.73070276 157.31481668 56 149 C60.5030544 149 61.14658725 149.54818686 64.5625 152.1875 C80.79848521 163.97168281 101.16150831 167.22524263 120.78125 164.46875 C127.46697369 163.00425814 133.77043367 160.81992417 140 158 C140.69738281 157.69191406 141.39476562 157.38382813 142.11328125 157.06640625 C147.25183429 154.66176298 151.58391967 151.5382388 156 148 C156.56332031 147.58363281 157.12664062 147.16726562 157.70703125 146.73828125 C170.51312866 136.75132472 180.68762717 119.26149501 182.80517578 103.16552734 C183.24619028 98.26352403 183.32624827 93.35673042 183.375 88.4375 C183.38909912 87.39674316 183.40319824 86.35598633 183.41772461 85.28369141 C183.35070239 74.51092961 180.94870821 64.56549088 176 55 C175.4328125 53.89398438 174.865625 52.78796875 174.28125 51.6484375 C170.24915381 44.06535331 165.87060022 37.38814706 159 32 C158.34 32 157.68 32 157 32 C157 31.34 157 30.68 157 30 C155.03853761 28.52890321 153.09256644 27.27118522 151 26 C150.11441406 25.44699219 149.22882813 24.89398438 148.31640625 24.32421875 C116.39970611 4.94177536 76.64694909 10.13777334 50.8125 37.1875 Z " fill="#FDFEFE" transform="translate(0,0)"/>
<path d="M0 0 C6.14173592 3.381137 9.10145055 6.63434894 11.72998047 13.19580078 C12.74482644 16.87150313 12.85180674 19.99388407 12.8203125 23.8046875 C12.8174826 24.48427521 12.81465271 25.16386292 12.81173706 25.86404419 C12.80062964 28.01371608 12.77554391 30.16295614 12.75 32.3125 C12.73995795 33.77863977 12.73083425 35.24478614 12.72265625 36.7109375 C12.70072159 40.28659631 12.66625814 43.86200594 12.625 47.4375 C13.615 47.1075 14.605 46.7775 15.625 46.4375 C15.69965394 42.29324912 15.75383721 38.14936376 15.78979492 34.00463867 C15.80479877 32.59734266 15.82520863 31.19009276 15.85131836 29.78295898 C15.88807665 27.74972093 15.90480984 25.71710568 15.91796875 23.68359375 C15.9336792 22.46341553 15.94938965 21.2432373 15.96557617 19.98608398 C15.56745411 15.837909 14.35103847 13.20554807 12.625 9.4375 C12.625 8.4475 12.625 7.4575 12.625 6.4375 C16.97987026 3.97989828 20.7143912 3.76560927 25.625 4.4375 C30.4473867 6.17996394 33.84064228 9.15387274 36.625 13.4375 C37.87632601 17.05552011 37.73875696 20.59085735 37.72265625 24.390625 C37.7212413 25.05084656 37.71982635 25.71106812 37.71836853 26.39129639 C37.71279245 28.49007794 37.70024447 30.58875095 37.6875 32.6875 C37.6824819 34.11458179 37.67791954 35.54166525 37.67382812 36.96875 C37.66283088 40.45836832 37.6455828 43.94792356 37.625 47.4375 C42.08415088 45.38886905 42.94197739 43.37762857 44.74609375 38.90625 C47.93140103 29.95907577 48.1864871 20.84244783 48.625 11.4375 C48.955 11.4375 49.285 11.4375 49.625 11.4375 C50.18482375 32.94621542 48.34044114 50.00257169 32.88037109 66.32446289 C20.69079919 78.63191833 5.4093595 84.33147904 -11.75 84.75 C-28.45191815 84.44846086 -42.99007435 78.00766114 -54.75 66.26171875 C-65.51261248 54.68230086 -71.78352526 41.18043527 -71.4453125 25.30859375 C-71.42210937 24.69113281 -71.39890625 24.07367188 -71.375 23.4375 C-71.045 23.4375 -70.715 23.4375 -70.375 23.4375 C-70.23924561 23.99211914 -70.10349121 24.54673828 -69.96362305 25.11816406 C-69.33961164 27.64378619 -68.70122077 30.16555953 -68.0625 32.6875 C-67.84916016 33.56019531 -67.63582031 34.43289062 -67.41601562 35.33203125 C-67.20009766 36.17636719 -66.98417969 37.02070312 -66.76171875 37.890625 C-66.56795654 38.66567383 -66.37419434 39.44072266 -66.17456055 40.23925781 C-65.25843702 42.75796811 -64.16633626 44.44755135 -62.375 46.4375 C-61.385 46.7675 -60.395 47.0975 -59.375 47.4375 C-59.39594727 46.53507568 -59.41689453 45.63265137 -59.43847656 44.70288086 C-59.50699232 41.3276125 -59.55696284 37.95309204 -59.59472656 34.57739258 C-59.61473822 33.12154416 -59.64195677 31.66577506 -59.67675781 30.21020508 C-59.89964075 20.64262718 -59.83252077 14.41943497 -53.25 7.0625 C-47.9903962 4.08968046 -42.53583329 3.8786638 -36.75 5.375 C-35.96625 5.725625 -35.1825 6.07625 -34.375 6.4375 C-34.96229044 8.88454348 -35.63467676 11.25005489 -36.40185547 13.65063477 C-37.3760158 17.44145284 -37.60499207 20.56339228 -37.5703125 24.46484375 C-37.56064453 26.39360352 -37.56064453 26.39360352 -37.55078125 28.36132812 C-37.53407601 29.69922154 -37.51714619 31.03711217 -37.5 32.375 C-37.48995322 33.74022783 -37.48083036 35.1054628 -37.47265625 36.47070312 C-37.44917605 39.79315199 -37.41633359 43.11523321 -37.375 46.4375 C-36.385 46.7675 -35.395 47.0975 -34.375 47.4375 C-34.39071045 46.5403125 -34.4064209 45.643125 -34.42260742 44.71875 C-34.47405641 41.35654804 -34.5115042 37.9947708 -34.53979492 34.63232422 C-34.55478417 33.18336339 -34.57518271 31.73444717 -34.60131836 30.28564453 C-34.93280706 11.42328743 -34.93280706 11.42328743 -27.9375 3.82421875 C-19.31615886 -3.82722151 -10.40091811 -4.74741293 0 0 Z " fill="#E11F60" transform="translate(118.375,65.5625)"/>
<path d="M0 0 C1.18070068 0.00737183 1.18070068 0.00737183 2.38525391 0.01489258 C9.00708154 0.14689589 14.97209733 1.14073255 21.25 3.3125 C22.72339844 3.80556641 22.72339844 3.80556641 24.2265625 4.30859375 C40.3686223 10.33579696 53.15592732 22.48088112 60.5078125 37.9609375 C66.68211963 52.82501022 68.25820507 71.18798653 62.5078125 86.46875 C62.09273438 87.4071875 61.67765625 88.345625 61.25 89.3125 C60.59644531 90.84390625 60.59644531 90.84390625 59.9296875 92.40625 C52.95678912 107.49514487 41.58692532 118.80202667 26.25 125.3125 C25.58484375 125.60769531 24.9196875 125.90289062 24.234375 126.20703125 C10.43242344 131.90173891 -6.74335723 132.45556414 -20.75 127.3125 C-39.2815294 119.49451103 -52.58921822 106.91200536 -60.75 88.3125 C-66.15088771 73.83965854 -66.05839243 54.41822221 -59.75 40.3125 C-51.47886462 22.30198035 -38.42262844 10.38984769 -20.09375 3.42578125 C-13.29421757 1.16191823 -7.18387656 -0.05363422 0 0 Z M-19.3125 49.9375 C-22.55918826 55.18002778 -22.87286376 59.33374324 -22.84765625 65.484375 C-22.84553383 66.5080014 -22.84553383 66.5080014 -22.84336853 67.55230713 C-22.83779084 69.72241684 -22.82524254 71.8924217 -22.8125 74.0625 C-22.80748211 75.53775892 -22.80291971 77.01301947 -22.79882812 78.48828125 C-22.78782875 82.09638798 -22.77057953 85.70443375 -22.75 89.3125 C-23.74 88.9825 -24.73 88.6525 -25.75 88.3125 C-25.82480519 84.32902774 -25.87890718 80.34583406 -25.91479492 76.36181641 C-25.93709408 74.34913752 -25.97523653 72.33665416 -26.01367188 70.32421875 C-26.06748627 63.18484224 -25.72557292 57.81033902 -22.75 51.3125 C-22.75 50.3225 -22.75 49.3325 -22.75 48.3125 C-28.18021133 45.88319493 -33.05722965 45.88699328 -38.75 47.3125 C-43.43558146 49.75800181 -45.77052673 53.525185 -47.75 58.3125 C-48.15942286 61.88599798 -48.15942286 61.88599798 -48.04296875 65.6796875 C-48.03872391 66.35927521 -48.03447906 67.03886292 -48.03010559 67.73904419 C-48.01344266 69.88894924 -47.97581716 72.03788299 -47.9375 74.1875 C-47.922437 75.6536322 -47.90875143 77.11977924 -47.89648438 78.5859375 C-47.8635808 82.16176875 -47.81188663 85.73703941 -47.75 89.3125 C-52.10591536 87.29371668 -52.99507601 85.47732602 -54.80078125 81.109375 C-56.55168808 75.95032444 -57.66213458 70.64468885 -58.75 65.3125 C-59.08 65.3125 -59.41 65.3125 -59.75 65.3125 C-60.61987082 80.16473879 -55.18187097 94.45991505 -45.4375 105.6875 C-32.93934769 118.52230287 -18.62634556 126.16039492 -0.5625 126.625 C17.07799795 126.30810483 32.151893 120.59922838 44.625 108.13671875 C56.625555 95.22540734 61.67453916 81.15783358 61.375 63.75 C61.36597656 62.74130859 61.35695313 61.73261719 61.34765625 60.69335938 C61.32433356 58.23281543 61.29160763 55.77279104 61.25 53.3125 C60.92 53.3125 60.59 53.3125 60.25 53.3125 C60.21261719 54.32828125 60.17523438 55.3440625 60.13671875 56.390625 C59.63894539 67.57484238 58.94157021 78.90247939 52.25 88.3125 C50.765 88.8075 50.765 88.8075 49.25 89.3125 C49.26571045 88.44036865 49.2814209 87.5682373 49.29760742 86.66967773 C49.34900821 83.40626982 49.38648093 80.14329768 49.41479492 76.87963867 C49.42979877 75.47234266 49.45020863 74.06509276 49.47631836 72.65795898 C49.51307665 70.62472093 49.52980984 68.59210568 49.54296875 66.55859375 C49.5586792 65.33841553 49.57438965 64.1182373 49.59057617 62.86108398 C49.14221215 58.18942012 47.87548989 54.20043878 44.75 50.5703125 C40.70281366 47.51384365 37.85678057 46.16753188 32.8125 46.125 C31.66974609 46.10373047 31.66974609 46.10373047 30.50390625 46.08203125 C28.01652685 46.33637334 26.40191894 47.07232804 24.25 48.3125 C24.78610953 50.63564129 25.42757592 52.77970285 26.27685547 55.01416016 C27.35410576 58.66535219 27.47780445 61.65937913 27.4453125 65.4609375 C27.4424826 66.11832916 27.43965271 66.77572083 27.43673706 67.45303345 C27.42563447 69.53138233 27.40054986 71.60928366 27.375 73.6875 C27.36495731 75.10546248 27.35583373 76.52343179 27.34765625 77.94140625 C27.32572805 81.39858037 27.29126818 84.85549642 27.25 88.3125 C25.765 88.8075 25.765 88.8075 24.25 89.3125 C24.27094727 88.42054932 24.29189453 87.52859863 24.31347656 86.60961914 C24.38216086 83.26039032 24.43204327 79.91192332 24.46972656 76.56225586 C24.48968751 75.12007748 24.51686663 73.6779784 24.55175781 72.23608398 C24.78361758 62.39909243 24.3505482 54.61909179 18.125 46.5625 C11.65311573 41.49754709 5.35986959 38.32347943 -3.01171875 38.7734375 C-10.13546456 40.17582968 -15.22198554 44.04521132 -19.3125 49.9375 Z " fill="#FAFAF9" transform="translate(106.75,23.6875)"/>
<path d="M0 0 C1.31000977 0.00737183 1.31000977 0.00737183 2.64648438 0.01489258 C17.9012656 0.28690084 31.98240212 4.06820332 44.5234375 12.9609375 C46.5786482 14.45783867 46.5786482 14.45783867 49.5 16.0625 C50.139375 16.475 50.77875 16.8875 51.4375 17.3125 C51.4375 17.9725 51.4375 18.6325 51.4375 19.3125 C52.33082031 19.72822266 52.33082031 19.72822266 53.2421875 20.15234375 C64.01736751 25.84670045 71.08600567 40.72224955 75 51.75 C76.51177301 56.88151119 77.20135423 61.97560556 77.4375 67.3125 C77.1075 67.3125 76.7775 67.3125 76.4375 67.3125 C76.1075 72.2625 75.7775 77.2125 75.4375 82.3125 C72.9625 83.3025 72.9625 83.3025 70.4375 84.3125 C70.1075 84.9725 69.7775 85.6325 69.4375 86.3125 C69.1075 83.6725 68.7775 81.0325 68.4375 78.3125 C67.7775 79.3025 67.1175 80.2925 66.4375 81.3125 C66.39882813 79.69794922 66.39882813 79.69794922 66.359375 78.05078125 C65.74627348 60.33601741 60.85116533 44.23799009 48.37109375 31.14453125 C33.65461399 17.53376196 16.91725777 11.71200378 -2.8828125 12.03515625 C-18.37653919 12.66890453 -33.64461383 20.35858197 -44.49609375 31.25390625 C-48.44469909 35.59312631 -51.63347756 40.23732747 -54.5625 45.3125 C-55.95445915 41.13662255 -54.38573219 39.17775224 -52.5625 35.3125 C-51.5725 35.3125 -50.5825 35.3125 -49.5625 35.3125 C-50.2225 34.6525 -50.8825 33.9925 -51.5625 33.3125 C-51.83241906 30.62410615 -51.64987357 28.02108064 -51.5625 25.3125 C-54.08838702 27.67542656 -55.45070837 28.97712511 -56.5625 32.3125 C-57.5525 32.8075 -57.5525 32.8075 -58.5625 33.3125 C-59.0575 34.3025 -59.5525 35.2925 -60.0625 36.3125 C-61.5625 39.3125 -61.5625 39.3125 -63.5625 40.3125 C-64.28409424 41.95613134 -64.95601421 43.62300386 -65.5625 45.3125 C-66.2225 45.3125 -66.8825 45.3125 -67.5625 45.3125 C-62.73240314 28.71055903 -47.61999528 16.48858716 -33.3046875 7.96875 C-28.31928165 5.30448453 -23.00922367 3.75334841 -17.5625 2.3125 C-16.33660156 1.96058594 -15.11070313 1.60867188 -13.84765625 1.24609375 C-9.22146567 0.1044396 -4.74847688 -0.03187207 0 0 Z " fill="#48C0ED" transform="translate(105.5625,12.6875)"/>
<path d="M0 0 C0.94921875 1.9609375 0.94921875 1.9609375 1.6875 4.375 C1.93886719 5.16648438 2.19023438 5.95796875 2.44921875 6.7734375 C3 9 3 9 3 12 C2.34 12 1.68 12 1 12 C1 12.99 1 13.98 1 15 C0.01 15.495 0.01 15.495 -1 16 C-1.41636719 17.0415625 -1.83273438 18.083125 -2.26171875 19.15625 C-3.99350752 23.41243305 -6.62640945 26.25211028 -9.8125 29.5 C-10.89289538 30.63188905 -11.97233325 31.76469286 -13.05078125 32.8984375 C-13.56334473 33.43307617 -14.0759082 33.96771484 -14.60400391 34.51855469 C-16.30963459 36.32858739 -17.91449435 38.2093505 -19.5 40.125 C-23.91979375 45.20776281 -26.95012405 46.59353817 -33.59375 47.0625 C-36.8973561 46.97669205 -38.55994312 46.21823353 -41 44 C-44.08382871 40.38447668 -44.65945032 36.94718825 -44.4609375 32.3203125 C-42.45036057 22.19927269 -29.68632185 13.87547653 -22 8 C-20.3364521 7.32558869 -18.66933058 6.6599679 -17 6 C-15.67639611 5.18441835 -14.36478476 4.34920851 -13.0625 3.5 C-4.97433614 -1.65811205 -4.97433614 -1.65811205 0 0 Z " fill="#0E70B7" transform="translate(50,144)"/>
<path d="M0 0 C0.66 0.33 1.32 0.66 2 1 C2.92134429 25.52547618 -2.15792615 45.71321636 -19.09765625 64.046875 C-27.61486419 72.88365191 -27.61486419 72.88365191 -32.72265625 73.1328125 C-33.47417969 73.08898437 -34.22570312 73.04515625 -35 73 C-35 72.34 -35 71.68 -35 71 C-36.65 70.67 -38.3 70.34 -40 70 C-40 70.66 -40 71.32 -40 72 C-41.8125 73.6875 -41.8125 73.6875 -44 75 C-44.99 74.67 -45.98 74.34 -47 74 C-46.13540683 70.47245987 -45.5915518 68.47526384 -42.71484375 66.1640625 C-41.34005859 65.40222656 -41.34005859 65.40222656 -39.9375 64.625 C-23.4823891 54.73477037 -15.05497822 40.57022025 -10.29296875 22.28515625 C-8.96899579 16.25584054 -8.44421929 10.14893011 -8 4 C-7.67 4 -7.34 4 -7 4 C-6.505 10.435 -6.505 10.435 -6 17 C-5.01 17 -4.02 17 -3 17 C-0.15385976 14.15385976 -0.54420924 11.19630858 -0.375 7.375 C-0.33632812 6.66859375 -0.29765625 5.9621875 -0.2578125 5.234375 C-0.16352276 3.49001476 -0.08067109 1.74504309 0 0 Z " fill="#33ADE1" transform="translate(181,79)"/>
<path d="M0 0 C3.43055246 6.86110493 3.17243756 12.29778882 3 20 C2.97486328 21.34964844 2.97486328 21.34964844 2.94921875 22.7265625 C2.13412651 37.02560916 -6.71766346 50.36042047 -16.9375 59.9375 C-32.38343567 72.95213098 -50.12874812 77.22833262 -70 76 C-87.53824964 73.64443534 -102.4235929 63.32710066 -113.08203125 49.59375 C-113.71496094 48.7378125 -114.34789062 47.881875 -115 47 C-115.47824219 46.3709375 -115.95648438 45.741875 -116.44921875 45.09375 C-119.68319973 40.28249408 -119.40198274 35.54959506 -119 30 C-116.44245115 32.55754885 -115.4497829 35.21087406 -113.9375 38.5 C-106.49598813 53.859438 -94.07553479 62.84012511 -78.48046875 68.87109375 C-63.59075255 73.70064255 -46.89333052 71.41673307 -32.875 65 C-18.79925453 57.48029759 -8.11113848 45.26074522 -3 30 C-1.14073581 23.33303735 -0.60536924 16.83417927 -0.375 9.9375 C-0.33632812 8.97650391 -0.29765625 8.01550781 -0.2578125 7.02539062 C-0.16461374 4.68377186 -0.07880815 2.34213963 0 0 Z " fill="#F1E6F5" transform="translate(168,78)"/>
<path d="M0 0 C0.66 0 1.32 0 2 0 C2.144375 1.093125 2.28875 2.18625 2.4375 3.3125 C2.88288104 6.93122987 2.88288104 6.93122987 4 10 C3.01 10 2.02 10 1 10 C0.80857422 11.0828125 0.80857422 11.0828125 0.61328125 12.1875 C0.01524813 14.93007226 -0.81042439 17.38102949 -1.8125 20 C-7.5669181 35.6729424 -12.02280484 51.62314807 -9 68.4375 C-8.7215625 70.01337891 -8.7215625 70.01337891 -8.4375 71.62109375 C-8.293125 72.40613281 -8.14875 73.19117187 -8 74 C-10.64 74 -13.28 74 -16 74 C-17.57918869 67.47755259 -18.53485975 61.11769419 -19.125 54.4375 C-19.21136719 53.54353516 -19.29773437 52.64957031 -19.38671875 51.72851562 C-20.15916159 43.34812386 -20.49588603 36.10140444 -17.6875 28.0625 C-17.47416016 27.39154297 -17.26082031 26.72058594 -17.04101562 26.02929688 C-16.38671875 24.09765625 -16.38671875 24.09765625 -15 21 C-14.01 20.67 -13.02 20.34 -12 20 C-11.30741771 18.00882592 -10.64252365 16.0078864 -10 14 C-8.5 12.375 -8.5 12.375 -7 11 C-5.82425289 8.90010348 -5.82425289 8.90010348 -5 7 C-4.34 7 -3.68 7 -3 7 C-2.87625 6.401875 -2.7525 5.80375 -2.625 5.1875 C-2 3 -2 3 0 0 Z " fill="#2193D1" transform="translate(52,38)"/>
<path d="M0 0 C2.47286761 2.04936469 3.37722009 3.18215587 4.140625 6.32421875 C4.36354034 12.15982394 3.57621501 16.27160041 -0.5 20.6875 C-4.91744361 23.40013062 -9.4613873 23.49727704 -14.5 22.6875 C-17.4375 20.4375 -17.4375 20.4375 -19.5 17.6875 C-20.098125 17.048125 -20.69625 16.40875 -21.3125 15.75 C-22.98181705 12.85065986 -22.89657527 10.99229389 -22.5 7.6875 C-21.03842707 4.13796574 -19.59714051 1.04132679 -16.5 -1.3125 C-10.83623191 -3.61996107 -5.1157572 -3.15653104 0 0 Z " fill="#F4A226" transform="translate(116.5,36.3125)"/>
<path d="M0 0 C0.33 0 0.66 0 1 0 C1.55982375 21.50871542 -0.28455886 38.56507169 -15.74462891 54.88696289 C-27.93420081 67.19441833 -43.2156405 72.89397904 -60.375 73.3125 C-73.17088198 73.08148107 -82.96090748 68.96045676 -94 63 C-92.02 62.505 -92.02 62.505 -90 62 C-90 62.66 -90 63.32 -90 64 C-87.03 64.66 -84.06 65.32 -81 66 C-81 66.66 -81 67.32 -81 68 C-80.030625 67.979375 -79.06125 67.95875 -78.0625 67.9375 C-75 68 -75 68 -74 69 C-71.96994518 69 -69.93935573 68.99642412 -67.91015625 68.9375 C-66 69 -66 69 -64 70 C-57.72685571 70.3360613 -52.1062205 69.40142766 -46 68 C-46 68.66 -46 69.32 -46 70 C-45.34 70 -44.68 70 -44 70 C-44 69.34 -44 68.68 -44 68 C-40.35206816 66.72746564 -36.8063457 65.67170806 -33 65 C-33.33 64.01 -33.66 63.02 -34 62 C-32.9375 60.5 -32.9375 60.5 -31 59 C-27.3125 58.8125 -27.3125 58.8125 -24 59 C-23.34 56.36 -22.68 53.72 -22 51 C-20.35 51.33 -18.7 51.66 -17 52 C-15.98648336 50.34151823 -14.98879205 48.67334039 -14 47 C-13.5875 46.319375 -13.175 45.63875 -12.75 44.9375 C-11.81586081 42.5243071 -12.01977939 41.36886648 -13 39 C-13.66 38.67 -14.32 38.34 -15 38 C-14.34 37.01 -13.68 36.02 -13 35 C-12.6303565 31.89791016 -12.6303565 31.89791016 -12.5859375 28.36328125 C-12.54726562 27.06455078 -12.50859375 25.76582031 -12.46875 24.42773438 C-12.43729483 23.05599427 -12.40604749 21.68424939 -12.375 20.3125 C-12.33680803 18.92901215 -12.29775558 17.54554777 -12.2578125 16.16210938 C-12.16339483 12.7748755 -12.07781882 9.38764931 -12 6 C-11.67 6 -11.34 6 -11 6 C-11 15.9 -11 25.8 -11 36 C-5.65351975 33.32675987 -4.93532171 30.43610365 -3 25 C-0.3862887 16.95781137 -0.39064996 8.37841352 0 0 Z " fill="#D03875" transform="translate(167,77)"/>
<path d="M0 0 C1.0326802 2.78823655 1.04509293 3.8677274 0.0625 6.75 C-0.4634375 7.86375 -0.4634375 7.86375 -1 9 C-1.66 9 -2.32 9 -3 9 C-3.33 13.29 -3.66 17.58 -4 22 C-3.34 22.33 -2.68 22.66 -2 23 C-2.68254732 28.91541008 -7.62086861 32.86507238 -12 36.375 C-15.11983183 38.82809358 -17.03775424 39.28891375 -21 39 C-21 38.34 -21 37.68 -21 37 C-22.65 36.67 -24.3 36.34 -26 36 C-26 36.66 -26 37.32 -26 38 C-27.8125 39.6875 -27.8125 39.6875 -30 41 C-30.99 40.67 -31.98 40.34 -33 40 C-32.13540683 36.47245987 -31.5915518 34.47526384 -28.71484375 32.1640625 C-27.79832031 31.65617187 -26.88179687 31.14828125 -25.9375 30.625 C-13.86827744 23.37087797 -4.82833809 13.42328547 0 0 Z " fill="#2399D3" transform="translate(167,113)"/>
<path d="M0 0 C-0.66 1.32 -1.32 2.64 -2 4 C-0.02 3.34 1.96 2.68 4 2 C4 1.34 4 0.68 4 0 C5.65 0.33 7.3 0.66 9 1 C9 1.66 9 2.32 9 3 C9.99 3.33 10.98 3.66 12 4 C-7.24384045 15.46441559 -28.11640017 19.25951754 -50.01953125 13.8671875 C-53.78594132 12.77132507 -57.38359763 11.518889 -61 10 C-57.02414898 8.44508797 -54.22130779 9.66014846 -50.25 10.875 C-39.39269018 13.94359668 -28.20837096 13.83715293 -17 14 C-17 13.05125 -17 12.1025 -17 11.125 C-17 9.41666667 -17 7.70833333 -17 6 C-18.98 5.67 -20.96 5.34 -23 5 C-23 4.67 -23 4.34 -23 4 C-21.57107422 3.70996094 -21.57107422 3.70996094 -20.11328125 3.4140625 C-18.23189453 3.02347656 -18.23189453 3.02347656 -16.3125 2.625 C-14.45044922 2.24214844 -14.45044922 2.24214844 -12.55078125 1.8515625 C-9.07411195 1.10828132 -9.07411195 1.10828132 -6.1875 -0.125 C-3.64929323 -1.14028271 -2.52162342 -0.9339346 0 0 Z " fill="#268CC9" transform="translate(137,149)"/>
<path d="M0 0 C0.78503906 0.18304688 1.57007812 0.36609375 2.37890625 0.5546875 C4.4375 1.125 4.4375 1.125 6.4375 2.125 C8.59317804 2.17472941 10.75044768 2.16120131 12.90625 2.1171875 C14.19917969 2.10042969 15.49210937 2.08367187 16.82421875 2.06640625 C18.88515792 2.03539618 20.94568987 1.99981637 23.00634766 1.95361328 C24.99357499 1.91137224 26.9811933 1.88898523 28.96875 1.8671875 C30.75635742 1.83407471 30.75635742 1.83407471 32.58007812 1.80029297 C33.52302734 1.90744629 34.46597656 2.01459961 35.4375 2.125 C36.0975 3.115 36.7575 4.105 37.4375 5.125 C36.4475 5.785 35.4575 6.445 34.4375 7.125 C33.71367533 9.18425139 33.71367533 9.18425139 33.4375 11.125 C19.49440595 11.57905867 6.76830014 11.5163224 -6.5625 7.125 C-6.8925 4.815 -7.2225 2.505 -7.5625 0.125 C-4.30516739 -0.96077754 -3.24060011 -0.77945241 0 0 Z " fill="#1B81C6" transform="translate(86.5625,151.875)"/>
<path d="M0 0 C0.33 0.66 0.66 1.32 1 2 C2.32 2 3.64 2 5 2 C5.53251766 3.91345327 6.05059483 5.8309295 6.5625 7.75 C6.85253906 8.81734375 7.14257812 9.8846875 7.44140625 10.984375 C8.00602156 14.032508 7.8570338 15.12893676 7 18 C6.77711499 20.58656673 6.58685615 23.15952778 6.4375 25.75 C6.39431641 26.44738281 6.35113281 27.14476563 6.30664062 27.86328125 C6.20110404 29.57531922 6.1001009 31.28763561 6 33 C5.195625 33.28875 4.39125 33.5775 3.5625 33.875 C0.8673532 34.73262568 0.8673532 34.73262568 0 37 C-0.33 34.36 -0.66 31.72 -1 29 C-1.66 29.99 -2.32 30.98 -3 32 C-3.04898438 30.90042969 -3.09796875 29.80085938 -3.1484375 28.66796875 C-3.55842037 20.30450765 -4.1758146 12.19997905 -6 4 C-5.38125 3.896875 -4.7625 3.79375 -4.125 3.6875 C-1.63473516 3.12474627 -1.63473516 3.12474627 0 0 Z " fill="#3AB8EA" transform="translate(175,62)"/>
<path d="M0 0 C0 3.25811062 -0.5522078 5.10441559 -2 8 C-2.99 8.33 -3.98 8.66 -5 9 C-5.33 9.99 -5.66 10.98 -6 12 C-7 15 -7 15 -9.0625 16.1875 C-9.701875 16.455625 -10.34125 16.72375 -11 17 C-10.360625 17.4125 -9.72125 17.825 -9.0625 18.25 C-6.72970099 20.22934462 -6.56168073 21.09798291 -6 24 C-5.34 24.66 -4.68 25.32 -4 26 C-1.89179203 25.6814823 -1.89179203 25.6814823 0 25 C0 26.65 0 28.3 0 30 C1.65 29.67 3.3 29.34 5 29 C5.061875 28.05125 5.12375 27.1025 5.1875 26.125 C5.455625 25.09375 5.72375 24.0625 6 23 C7.64551962 22.28272222 9.31422289 21.61674772 11 21 C12.36078035 18.47627099 12.36078035 18.47627099 13 16 C14.32 16 15.64 16 17 16 C15.44552062 19.6020463 13.252552 22.16870103 10.625 25.0625 C9.46871094 26.34833984 9.46871094 26.34833984 8.2890625 27.66015625 C3.76227894 32.28736334 0.82746392 33.60923784 -5.59375 34.0625 C-8.8973561 33.97669205 -10.55994312 33.21823353 -13 31 C-16.0832713 27.3851302 -16.65598463 23.94982807 -16.46484375 19.32421875 C-14.80715767 11.03578835 -6.05613295 5.17045343 0 0 Z " fill="#1762AD" transform="translate(22,157)"/>
<path d="M0 0 C0.66 0 1.32 0 2 0 C2.144375 1.093125 2.28875 2.18625 2.4375 3.3125 C2.88288104 6.93122987 2.88288104 6.93122987 4 10 C3.01 10 2.02 10 1 10 C0.80857422 11.0828125 0.80857422 11.0828125 0.61328125 12.1875 C0.01524813 14.93007226 -0.81042439 17.38102949 -1.8125 20 C-4.14198352 26.25462057 -6.08921175 32.60699037 -8 39 C-8.33 39 -8.66 39 -9 39 C-9 35.66666667 -9 32.33333333 -9 29 C-10.65 28.67 -12.3 28.34 -14 28 C-15.84790538 31.31016094 -16.74541487 34.57173491 -17.625 38.25 C-17.88539062 39.32765625 -18.14578125 40.4053125 -18.4140625 41.515625 C-18.60742188 42.33546875 -18.80078125 43.1553125 -19 44 C-19.33 44 -19.66 44 -20 44 C-20.58557654 38.2613499 -19.46320718 33.51373359 -17.6875 28.0625 C-17.47456299 27.38759521 -17.26162598 26.71269043 -17.04223633 26.01733398 C-16.38671875 24.09765625 -16.38671875 24.09765625 -15 21 C-14.01 20.67 -13.02 20.34 -12 20 C-11.30741771 18.00882592 -10.64252365 16.0078864 -10 14 C-8.5 12.375 -8.5 12.375 -7 11 C-5.82425289 8.90010348 -5.82425289 8.90010348 -5 7 C-4.34 7 -3.68 7 -3 7 C-2.87625 6.401875 -2.7525 5.80375 -2.625 5.1875 C-2 3 -2 3 0 0 Z " fill="#2AA2DC" transform="translate(52,38)"/>
<path d="M0 0 C0.33 0 0.66 0 1 0 C1.05534912 0.589021 1.11069824 1.17804199 1.16772461 1.78491211 C1.42353973 4.50251515 1.68051378 7.22000746 1.9375 9.9375 C2.02451172 10.86369141 2.11152344 11.78988281 2.20117188 12.74414062 C2.74675187 18.5030406 3.3456605 24.2524233 4 30 C7.465 29.505 7.465 29.505 11 29 C10.84402344 28.3915625 10.68804687 27.783125 10.52734375 27.15625 C8.62540075 18.59120869 9.197075 10.64771926 10 2 C10.33 2 10.66 2 11 2 C11.03963867 2.57854736 11.07927734 3.15709473 11.12011719 3.75317383 C12.25924351 19.56720516 14.97857476 31.1764105 23 45 C20 46 20 46 17 45 C15.82244087 42.05610218 15.96651304 41.10046087 17 38 C14.52372901 38.63921965 14.52372901 38.63921965 12 40 C10.63921965 42.52372901 10.63921965 42.52372901 10 45 C6.88052631 41.40419948 5.47414048 37.47018117 3.875 33.0625 C3.61074219 32.35931641 3.34648438 31.65613281 3.07421875 30.93164062 C1.1207945 25.64152977 -0.13434144 20.82292317 -0.09765625 15.13671875 C-0.09443359 14.25048828 -0.09121094 13.36425781 -0.08789062 12.45117188 C-0.07951172 11.53916016 -0.07113281 10.62714844 -0.0625 9.6875 C-0.05798828 8.75615234 -0.05347656 7.82480469 -0.04882812 6.86523438 C-0.03709234 4.57675627 -0.02067363 2.28841192 0 0 Z " fill="#2A8AC6" transform="translate(32,82)"/>
<path d="M0 0 C2.875 1.0625 2.875 1.0625 5 3 C6.0625 6.3125 6.0625 6.3125 6 10 C3.06329114 15.46835443 3.06329114 15.46835443 0 17 C-4.62620533 17.41121825 -7.29903144 16.85503289 -11 14 C-12.20776206 10.37671381 -12.40040892 7.80388473 -12 4 C-8.43754928 -0.21016903 -5.35404223 -0.66925528 0 0 Z " fill="#F1A91E" transform="translate(78,50)"/>
<path d="M0 0 C2.3359375 1.8984375 2.3359375 1.8984375 3.23046875 4.9609375 C3.33995623 8.01036659 2.98346807 9.37868486 1.3359375 11.8984375 C0.8409375 10.4134375 0.8409375 10.4134375 0.3359375 8.8984375 C-0.3240625 8.8984375 -0.9840625 8.8984375 -1.6640625 8.8984375 C-3.04638693 7.27217346 -4.38343765 5.6059373 -5.6640625 3.8984375 C-6.9840625 5.2184375 -8.3040625 6.5384375 -9.6640625 7.8984375 C-10.3240625 6.9084375 -10.9840625 5.9184375 -11.6640625 4.8984375 C-10.6740625 4.2384375 -9.6840625 3.5784375 -8.6640625 2.8984375 C-8.9940625 2.2384375 -9.3240625 1.5784375 -9.6640625 0.8984375 C-11.30375 1.6409375 -11.30375 1.6409375 -12.9765625 2.3984375 C-16.38812984 3.78619371 -18.12596915 3.8984375 -21.6640625 3.8984375 C-21.6640625 1.8984375 -21.6640625 1.8984375 -20.1640625 0.2734375 C-19.6690625 -0.1803125 -19.1740625 -0.6340625 -18.6640625 -1.1015625 C-23.24951067 1.47954439 -23.24951067 1.47954439 -25.6640625 5.8984375 C-26.3240625 5.8984375 -26.9840625 5.8984375 -27.6640625 5.8984375 C-27.6640625 6.8884375 -27.6640625 7.8784375 -27.6640625 8.8984375 C-29.6440625 8.8984375 -31.6240625 8.8984375 -33.6640625 8.8984375 C-33.9940625 10.8784375 -34.3240625 12.8584375 -34.6640625 14.8984375 C-35.3240625 14.8984375 -35.9840625 14.8984375 -36.6640625 14.8984375 C-36.36373202 8.89182794 -33.75059395 5.08820764 -29.6640625 0.8984375 C-19.95574149 -6.92477263 -10.58068705 -5.14074512 0 0 Z " fill="#E95D44" transform="translate(121.6640625,67.1015625)"/>
<path d="M0 0 C3.44652326 2.44128731 4.78056289 3.82966874 5.5625 8 C4.87642343 11.65907504 3.57265686 13.35167676 1 16 C-1.88861709 17.44430855 -3.79647701 17.37688506 -7 17 C-9.86972996 15.00366611 -11.65210765 13.52770117 -12.44921875 10.02734375 C-12.63063966 6.6804408 -12.22262069 4.37103449 -10.5 1.5 C-7.01402996 -0.59158203 -3.89784294 -0.8876276 0 0 Z " fill="#F56138" transform="translate(144,50)"/>
<path d="M0 0 C0.66 0.33 1.32 0.66 2 1 C-1.53903346 4.79182156 -1.53903346 4.79182156 -3.9375 5.875 C-6.14331932 7.07817417 -7.07504833 8.17960611 -8.625 10.125 C-9.40875 11.07375 -10.1925 12.0225 -11 13 C-11.66 13 -12.32 13 -13 13 C-12.5359375 13.8971875 -12.5359375 13.8971875 -12.0625 14.8125 C-11 17 -11 17 -10 20 C-9.34 19.67 -8.68 19.34 -8 19 C-8.33 17.02 -8.66 15.04 -9 13 C-7.35 12.34 -5.7 11.68 -4 11 C-4 11.66 -4 12.32 -4 13 C-2.02463255 12.65213292 -2.02463255 12.65213292 0 12 C0.33 11.34 0.66 10.68 1 10 C1.66 10 2.32 10 3 10 C3.66 8.35 4.32 6.7 5 5 C8.63 5 12.26 5 16 5 C13.17300559 7.12024581 11.36811711 8.39194795 8.3125 9.75 C-2.92987831 15.26670608 -10.82831705 24.30620834 -17 35 C-18.39195915 30.82412255 -16.82323219 28.86525224 -15 25 C-14.01 25 -13.02 25 -12 25 C-12.66 24.34 -13.32 23.68 -14 23 C-14.26991906 20.31160615 -14.08737357 17.70858064 -14 15 C-16.52588702 17.36292656 -17.88820837 18.66462511 -19 22 C-19.66 22.33 -20.32 22.66 -21 23 C-21.495 23.99 -21.99 24.98 -22.5 26 C-24 29 -24 29 -26 30 C-26.72159424 31.64363134 -27.39351421 33.31050386 -28 35 C-28.66 35 -29.32 35 -30 35 C-25.70425885 20.23473898 -12.37940933 8.28379166 0 0 Z " fill="#39AEDF" transform="translate(68,23)"/>
<path d="M0 0 C0.66 1.32 1.32 2.64 2 4 C2.99 3.34 3.98 2.68 5 2 C6.0326802 4.78823655 6.04509293 5.8677274 5.0625 8.75 C4.711875 9.4925 4.36125 10.235 4 11 C3.34 11 2.68 11 2 11 C1.67 13.31 1.34 15.62 1 18 C0.01 18.33 -0.98 18.66 -2 19 C-2 19.99 -2 20.98 -2 22 C-2.66 22.33 -3.32 22.66 -4 23 C-4.68132451 24.66072849 -5.34742127 26.327767 -6 28 C-6.66 28.66 -7.32 29.32 -8 30 C-8.99 29.67 -9.98 29.34 -11 29 C-11.19188324 24.20291909 -10.9022844 20.43866361 -9 16 C-8.34 15.67 -7.68 15.34 -7 15 C-6.46141459 12.97674932 -6.46141459 12.97674932 -6.125 10.625 C-5.2563355 6.23303227 -5.2563355 6.23303227 -2.9375 4.125 C-2.298125 3.75375 -1.65875 3.3825 -1 3 C-0.67 2.01 -0.34 1.02 0 0 Z " fill="#23A2DC" transform="translate(173,106)"/>
<path d="M0 0 C0.99 0.66 1.98 1.32 3 2 C2.01 3.485 2.01 3.485 1 5 C1.99 6.485 1.99 6.485 3 8 C-0.8503105 10.56687367 -2.58569763 9.83288724 -7 9 C-7.2475 9.7425 -7.495 10.485 -7.75 11.25 C-9.12495599 14.27490317 -10.36212327 15.98280015 -13 18 C-15.0625 17.75 -15.0625 17.75 -17 17 C-17.99 17 -18.98 17 -20 17 C-19.67 18.98 -19.34 20.96 -19 23 C-19.99 23.33 -20.98 23.66 -22 24 C-25 20.375 -25 20.375 -25 17 C-23.125 14.8125 -23.125 14.8125 -21 13 C-20.34 13 -19.68 13 -19 13 C-18.67 12.01 -18.34 11.02 -18 10 C-17.21625 9.71125 -16.4325 9.4225 -15.625 9.125 C-12.78468592 8.24222834 -12.78468592 8.24222834 -11.75 5.5 C-9.65534908 2.50764154 -8.83817559 2.47103971 -5.375 1.75 C-4.57835938 1.62109375 -3.78171875 1.4921875 -2.9609375 1.359375 C-1.00310656 1.19245879 -1.00310656 1.19245879 0 0 Z " fill="#3EB9ED" transform="translate(80,19)"/>
<path d="M0 0 C0.66 0.5775 1.32 1.155 2 1.75 C2 3.07 2 4.39 2 5.75 C-5.2 8.75 -5.2 8.75 -9 8.75 C-9.78375 9.08 -10.5675 9.41 -11.375 9.75 C-14 10.75 -14 10.75 -18 10.75 C-18.33 12.73 -18.66 14.71 -19 16.75 C-21 14.75 -21 14.75 -21.3125 12 C-20.88511543 7.55520049 -19.32446882 4.41998243 -16.5625 0.9375 C-11.94233702 -2.57382386 -5.11499783 -2.1312491 0 0 Z " fill="#ECC032" transform="translate(115,35.25)"/>
<path d="M0 0 C1.14662109 0.13535156 1.14662109 0.13535156 2.31640625 0.2734375 C4.4375 0.625 4.4375 0.625 7.4375 1.625 C6.82472388 4.58675123 6.18377478 6.00558783 4.4375 8.625 C3.7775 6.315 3.1175 4.005 2.4375 1.625 C-0.59542954 2.76583176 -0.59542954 2.76583176 -3.5625 4.625 C-4.53156827 7.20914426 -4.53156827 7.20914426 -4.5625 9.625 C-6.17125 9.74875 -6.17125 9.74875 -7.8125 9.875 C-12.00087 10.712674 -13.02175394 11.30015797 -15.5625 14.625 C-16.20245961 17.7099946 -16.20245961 17.7099946 -16.171875 21.140625 C-16.20410156 22.39101562 -16.23632812 23.64140625 -16.26953125 24.9296875 C-16.28371094 26.23164062 -16.29789063 27.53359375 -16.3125 28.875 C-16.34214844 30.19242188 -16.37179688 31.50984375 -16.40234375 32.8671875 C-16.47305388 36.11985343 -16.52574786 39.37180193 -16.5625 42.625 C-16.8925 42.625 -17.2225 42.625 -17.5625 42.625 C-17.6620024 38.33836002 -17.7342631 34.05234669 -17.78222656 29.76489258 C-17.80223822 28.30904416 -17.82945677 26.85327506 -17.86425781 25.39770508 C-18.21391082 10.38833567 -18.21391082 10.38833567 -13.5625 4.625 C-9.17411821 0.4560373 -5.95103278 -0.74513778 0 0 Z " fill="#E65F4D" transform="translate(76.5625,70.375)"/>
<path d="M0 0 C1.65 0 3.3 0 5 0 C9.43635348 8.39005971 9.48305862 16.3796086 9.25 25.625 C9.22988824 27.0247138 9.21164579 28.42445576 9.1953125 29.82421875 C9.14851718 33.21687915 9.08296363 36.60806384 9 40 C7.02 40.495 7.02 40.495 5 41 C4.9906543 40.11328613 4.98130859 39.22657227 4.97167969 38.31298828 C4.92727759 34.97630147 4.86549612 31.64082529 4.79248047 28.3046875 C4.76451136 26.86958271 4.74317897 25.43433076 4.72900391 23.99902344 C4.63848877 15.34577645 4.105692 7.84050158 0 0 Z " fill="#FFE4EC" transform="translate(126,72)"/>
<path d="M0 0 C0.99 0.66 1.98 1.32 3 2 C2.68289062 2.99 2.36578125 3.98 2.0390625 5 C0.32583167 11.85292331 0.52801166 18.97580832 0.375 26 C0.33675034 27.45705282 0.29769473 28.91408471 0.2578125 30.37109375 C0.16257494 33.91386926 0.07827103 37.4568043 0 41 C-1.32 40.67 -2.64 40.34 -4 40 C-4.10024553 36.071532 -4.17210244 32.14357766 -4.21972656 28.21411133 C-4.24930134 26.23427092 -4.30017533 24.25478499 -4.3515625 22.27539062 C-4.43505538 14.03046846 -3.47354227 7.50805966 0 0 Z " fill="#FAD6DF" transform="translate(84,72)"/>
<path d="M0 0 C1.32 0 2.64 0 4 0 C4 0.66 4 1.32 4 2 C8.455 2.99 8.455 2.99 13 4 C13 4.66 13 5.32 13 6 C13.969375 5.979375 14.93875 5.95875 15.9375 5.9375 C19 6 19 6 20 7 C22.03005482 7 24.06064427 6.99642412 26.08984375 6.9375 C28 7 28 7 30 8 C36.27314429 8.3360613 41.8937795 7.40142766 48 6 C48 6.66 48 7.32 48 8 C48.66 8 49.32 8 50 8 C50 7.34 50 6.68 50 6 C52 5.33333333 54 4.66666667 56 4 C57.15435547 3.58621094 57.15435547 3.58621094 58.33203125 3.1640625 C59.52892578 2.74253906 59.52892578 2.74253906 60.75 2.3125 C61.50796875 2.04050781 62.2659375 1.76851562 63.046875 1.48828125 C65 1 65 1 67 2 C52.37986213 10.27403407 36.5722392 13.49419723 19.9375 9.9375 C12.85542522 7.94717612 6.44455391 4.47967778 0 1 C0 0.67 0 0.34 0 0 Z " fill="#C03085" transform="translate(73,139)"/>
<path d="M0 0 C0.99 0.33 1.98 0.66 3 1 C-2.63259513 7.50342398 -13.7966597 9.20612836 -22 10 C-36.37126516 10.85396882 -49.59470438 9.63022416 -63 4 C-59.02414898 2.44508797 -56.22130779 3.66014846 -52.25 4.875 C-41.39269018 7.94359668 -30.20837096 7.83715293 -19 8 C-19 7.34 -19 6.68 -19 6 C-17.453125 5.814375 -17.453125 5.814375 -15.875 5.625 C-12.07626416 5.12298625 -12.07626416 5.12298625 -8.875 3.9375 C-6.04897244 3.01596927 -3.94528126 2.82674816 -1 3 C-0.67 2.01 -0.34 1.02 0 0 Z " fill="#3D89BB" transform="translate(139,155)"/>
<path d="M0 0 C4.48187483 8.96374966 4.08954712 20.16383917 2 30 C-0.78243105 37.39121553 -0.78243105 37.39121553 -4 39 C-4.33 39.99 -4.66 40.98 -5 42 C-5.66 42 -6.32 42 -7 42 C-7.33 43.32 -7.66 44.64 -8 46 C-8.66 46 -9.32 46 -10 46 C-8.28701908 41.59066023 -6.28277363 37.36327737 -4.21875 33.109375 C-1.25017906 25.53571323 -0.64462463 18.00938723 -0.375 9.9375 C-0.31699219 8.49600586 -0.31699219 8.49600586 -0.2578125 7.02539062 C-0.16461374 4.68377186 -0.07880815 2.34213963 0 0 Z " fill="#F9DDE7" transform="translate(168,78)"/>
<path d="M0 0 C0.66 0 1.32 0 2 0 C2.8125 3.1875 2.8125 3.1875 3 7 C0.84567661 9.678348 -0.92508839 11.46254419 -4 13 C-5.70702735 13.06996014 -7.41668003 13.08440154 -9.125 13.0625 C-10.03507812 13.05347656 -10.94515625 13.04445313 -11.8828125 13.03515625 C-12.58148438 13.02355469 -13.28015625 13.01195312 -14 13 C-14.66 11.68 -15.32 10.36 -16 9 C-15.01 8.67 -14.02 8.34 -13 8 C-13 8.66 -13 9.32 -13 10 C-12.34 10 -11.68 10 -11 10 C-11 9.34 -11 8.68 -11 8 C-7.69649386 4.88002198 -6.67590167 4 -2 4 C-2 3.34 -2 2.68 -2 2 C-1.34 2 -0.68 2 0 2 C0 1.34 0 0.68 0 0 Z " fill="#F38D2C" transform="translate(116,46)"/>
<path d="M0 0 C0.66 0 1.32 0 2 0 C2.144375 1.093125 2.28875 2.18625 2.4375 3.3125 C2.88288104 6.93122987 2.88288104 6.93122987 4 10 C3.01 10 2.02 10 1 10 C0.67 11.65 0.34 13.3 0 15 C-0.99 15.33 -1.98 15.66 -3 16 C-3 16.66 -3 17.32 -3 18 C-4.98 17.67 -6.96 17.34 -9 17 C-8.29445932 13.33118845 -6.72264494 10.29549466 -5 7 C-4.34 7 -3.68 7 -3 7 C-2.814375 6.1028125 -2.814375 6.1028125 -2.625 5.1875 C-2 3 -2 3 0 0 Z " fill="#2AAAE2" transform="translate(52,38)"/>
<path d="M0 0 C1.35419962 3.38549906 0.56563964 5.44360629 -0.49755859 8.80517578 C-1.59295123 13.59019996 -1.32683877 18.55371437 -1.3125 23.4375 C-1.32861328 24.53126953 -1.34472656 25.62503906 -1.36132812 26.75195312 C-1.36527156 33.30199978 -0.56279835 37.9955379 2 44 C2.32185851 46.78085756 2.15077055 49.18561642 2 52 C-5.91997191 42.54927721 -4.80339589 27.18825899 -4.23779297 15.56542969 C-3.73062071 10.09380129 -2.1373972 5.05723445 0 0 Z " fill="#E6F7FD" transform="translate(47,64)"/>
<path d="M0 0 C0.3955664 3.35632094 0.21832316 4.68949595 -1.7578125 7.5 C-4.14880717 10.02514289 -6.54499799 12.53690902 -9 15 C-9.81791016 15.85271484 -9.81791016 15.85271484 -10.65234375 16.72265625 C-14.53557253 20.41226143 -17.85994375 20.73413502 -23 21 C-23.33 20.34 -23.66 19.68 -24 19 C-22.9375 17.5 -22.9375 17.5 -21 16 C-17.3125 15.8125 -17.3125 15.8125 -14 16 C-13.34 13.36 -12.68 10.72 -12 8 C-10.35 8.33 -8.7 8.66 -7 9 C-5.3372974 6.32521756 -4.00016187 4.0004856 -3 1 C-1 0 -1 0 0 0 Z " fill="#C52774" transform="translate(157,120)"/>
<path d="M0 0 C1.66611905 -0.042721 3.33382885 -0.04063832 5 0 C5.33 0.33 5.66 0.66 6 1 C8.13353174 1.10003289 10.27037542 1.13081048 12.40625 1.1328125 C14.35724609 1.13474609 14.35724609 1.13474609 16.34765625 1.13671875 C17.02844238 1.13462402 17.70922852 1.1325293 18.41064453 1.13037109 C20.49128515 1.1250224 22.57170989 1.1303168 24.65234375 1.13671875 C25.95300781 1.13542969 27.25367188 1.13414062 28.59375 1.1328125 C29.79708984 1.13168457 31.00042969 1.13055664 32.24023438 1.12939453 C34.90984482 1.31455977 34.90984482 1.31455977 36 0 C38.67058851 -0.14115161 41.32432238 -0.04247107 44 0 C38.6043806 5.3956194 27.29010301 5.31607912 19.875 5.375 C12.95967008 5.33647915 6.57873344 4.09323337 0 2 C0 1.34 0 0.68 0 0 Z " fill="#DFEEF9" transform="translate(86,149)"/>
<path d="M0 0 C0 3.25811062 -0.5522078 5.10441559 -2 8 C-2.99 8.33 -3.98 8.66 -5 9 C-5.33 9.99 -5.66 10.98 -6 12 C-7.175625 12.0928125 -7.175625 12.0928125 -8.375 12.1875 C-11.14335417 12.73409791 -11.14335417 12.73409791 -12.3125 15.0625 C-13.21322282 18.91104294 -13.25544813 22.04055404 -13 26 C-10.9927092 29.0109362 -10.16115776 29.63016497 -7 31 C-7 31.66 -7 32.32 -7 33 C-5.35 33 -3.7 33 -2 33 C-2 33.33 -2 33.66 -2 34 C-6.65754061 34.32494469 -9.29301459 33.90547505 -13 31 C-16.0832713 27.3851302 -16.65598463 23.94982807 -16.46484375 19.32421875 C-14.80715767 11.03578835 -6.05613295 5.17045343 0 0 Z " fill="#3B6BA0" transform="translate(22,157)"/>
<path d="M0 0 C0 0.33 0 0.66 0 1 C-1.175625 1.061875 -2.35125 1.12375 -3.5625 1.1875 C-8.24235493 1.76207294 -11.6742086 3.66456863 -15 7 C-15.33 7.99 -15.66 8.98 -16 10 C-16.66 10 -17.32 10 -18 10 C-18 10.99 -18 11.98 -18 13 C-19.98 13 -21.96 13 -24 13 C-24.33 14.98 -24.66 16.96 -25 19 C-25.66 19 -26.32 19 -27 19 C-26.69966952 12.99339044 -24.08653145 9.18977014 -20 5 C-13.69568738 -0.08017425 -7.90343469 -0.66477488 0 0 Z " fill="#E75B48" transform="translate(112,63)"/>
<path d="M0 0 C1.53720703 -0.01836914 1.53720703 -0.01836914 3.10546875 -0.03710938 C8.72429697 -0.04795653 13.44745122 0.29266265 18.75 2.1875 C18.75 2.8475 18.75 3.5075 18.75 4.1875 C18.11578125 4.1153125 17.4815625 4.043125 16.828125 3.96875 C3.25471564 2.61890818 -10.57946204 1.81320065 -23.81640625 5.53125 C-26.25 6.1875 -26.25 6.1875 -29.25 6.1875 C-28.92 5.5275 -28.59 4.8675 -28.25 4.1875 C-25.97958206 3.58070032 -23.68153231 3.07545774 -21.375 2.625 C-13.91035634 1.1458663 -7.63874622 0.0047328 0 0 Z " fill="#D3F7FD" transform="translate(109.25,10.8125)"/>
<path d="M0 0 C0.33 0 0.66 0 1 0 C1 10.23 1 20.46 1 31 C1.99 30.67 2.98 30.34 4 30 C4.33 20.76 4.66 11.52 5 2 C5.33 2 5.66 2 6 2 C6.19218929 6.37781384 6.37092139 10.75590559 6.53710938 15.13476562 C6.59556854 16.62482488 6.65772629 18.11474376 6.72363281 19.60449219 C6.81764056 21.74388064 6.89840682 23.88341868 6.9765625 26.0234375 C7.02893066 27.31169434 7.08129883 28.59995117 7.13525391 29.92724609 C7 33 7 33 5 35 C3.35 35 1.7 35 0 35 C0 23.45 0 11.9 0 0 Z " fill="#CC396B" transform="translate(130,82)"/>
<path d="M0 0 C0.99 0.33 1.98 0.66 3 1 C3 6.61 3 12.22 3 18 C2.67 18 2.34 18 2 18 C2.33 22.62 2.66 27.24 3 32 C-0.67037282 27.10616957 -1.12563046 24.57488511 -1.1328125 18.61328125 C-1.13410156 17.59298828 -1.13539062 16.57269531 -1.13671875 15.52148438 C-1.13091797 13.93303711 -1.13091797 13.93303711 -1.125 12.3125 C-1.12886719 11.24193359 -1.13273437 10.17136719 -1.13671875 9.06835938 C-1.13542969 8.05193359 -1.13414063 7.03550781 -1.1328125 5.98828125 C-1.13168457 5.05540283 -1.13055664 4.12252441 -1.12939453 3.16137695 C-1 1 -1 1 0 0 Z " fill="#FDE6E6" transform="translate(46,76)"/>
<path d="M0 0 C0.66 1.32 1.32 2.64 2 4 C2.99 3.34 3.98 2.68 5 2 C6.0326802 4.78823655 6.04509293 5.8677274 5.0625 8.75 C4.711875 9.4925 4.36125 10.235 4 11 C3.34 11 2.68 11 2 11 C2 11.66 2 12.32 2 13 C-3.75 14.125 -3.75 14.125 -6 13 C-5.50505051 6.44191919 -5.50505051 6.44191919 -3 4.25 C-2.01 3.63125 -2.01 3.63125 -1 3 C-0.67 2.01 -0.34 1.02 0 0 Z " fill="#2BA7E0" transform="translate(173,106)"/>
<path d="M0 0 C1.0326802 2.78823655 1.04509293 3.8677274 0.0625 6.75 C-0.4634375 7.86375 -0.4634375 7.86375 -1 9 C-1.66 9 -2.32 9 -3 9 C-3.26167969 9.7321875 -3.52335937 10.464375 -3.79296875 11.21875 C-6.57709851 17.63396161 -11.78495969 23.3809643 -17 28 C-17.66 28 -18.32 28 -19 28 C-19 29.32 -19 30.64 -19 32 C-22.98060777 33.17076699 -26.91621717 34.25749403 -31 35 C-28.80265736 32.64322872 -26.53416914 30.96489241 -23.8125 29.25 C-12.81813419 21.93226379 -4.53040601 12.63744834 0 0 Z " fill="#3E96C8" transform="translate(167,113)"/>
<path d="M0 0 C1.6254308 0.14095064 3.25034051 0.28792087 4.875 0.4375 C5.77992187 0.51871094 6.68484375 0.59992187 7.6171875 0.68359375 C10 1 10 1 12 2 C12 3.32 12 4.64 12 6 C9.02588876 7.23921302 6.14737182 8.30058404 3 9 C3 8.01 3 7.02 3 6 C1.329375 6.061875 1.329375 6.061875 -0.375 6.125 C-4 6 -4 6 -6 4 C-4.7934375 3.566875 -4.7934375 3.566875 -3.5625 3.125 C-0.8673532 2.26737432 -0.8673532 2.26737432 0 0 Z " fill="#EEC618" transform="translate(105,35)"/>
<path d="M0 0 C0.66 0.66 1.32 1.32 2 2 C1.86628937 5.67704228 1.77513533 8.11002981 -0.6875 10.9375 C-3.69101831 12.3174949 -5.72976207 12.41747718 -9 12 C-10.875 10.5 -10.875 10.5 -12 9 C-10.68 9 -9.36 9 -8 9 C-7.34 7.02 -6.68 5.04 -6 3 C-4.02 2.67 -2.04 2.34 0 2 C0 1.34 0 0.68 0 0 Z " fill="#F39328" transform="translate(81,55)"/>
<path d="M0 0 C0.99 0.66 1.98 1.32 3 2 C2.34 3.65 1.68 5.3 1 7 C1.66 7 2.32 7 3 7 C2.67 7.99 2.34 8.98 2 10 C1.401875 9.835 0.80375 9.67 0.1875 9.5 C-2.11344336 8.8885876 -2.11344336 8.8885876 -5 9 C-4.67 10.98 -4.34 12.96 -4 15 C-4.99 15.33 -5.98 15.66 -7 16 C-10 12.375 -10 12.375 -10 9 C-8.125 6.8125 -8.125 6.8125 -6 5 C-5.34 5 -4.68 5 -4 5 C-3.67 4.01 -3.34 3.02 -3 2 C-2.01 1.34 -1.02 0.68 0 0 Z " fill="#33B5EB" transform="translate(65,27)"/>
<path d="M0 0 C-0.61277612 2.96175123 -1.25372522 4.38058783 -3 7 C-3.66 4.69 -4.32 2.38 -5 0 C-5.70125 0.350625 -6.4025 0.70125 -7.125 1.0625 C-10.50268586 2.1639193 -12.58080593 1.79516141 -16 1 C-16.226875 1.5775 -16.45375 2.155 -16.6875 2.75 C-18.33038023 5.5663661 -20.39533227 7.08077114 -23 9 C-23 4.9535243 -21.80003109 3.87182676 -19 1 C-12.49885146 -2.82420502 -6.91590315 -2.30530105 0 0 Z " fill="#E7714A" transform="translate(84,72)"/>
<path d="M0 0 C0.33 0 0.66 0 1 0 C1.13575439 0.55461914 1.27150879 1.10923828 1.41137695 1.68066406 C2.03538836 4.20628619 2.67377923 6.72805953 3.3125 9.25 C3.52583984 10.12269531 3.73917969 10.99539062 3.95898438 11.89453125 C4.17490234 12.73886719 4.39082031 13.58320312 4.61328125 14.453125 C4.80704346 15.22817383 5.00080566 16.00322266 5.20043945 16.80175781 C6.6269382 20.72364932 8.54502989 22.69668659 12 25 C11.01 25.33 10.02 25.66 9 26 C7.79117904 28.00016466 7.79117904 28.00016466 7 30 C1.9747604 19.73853746 -0.429825 11.43812087 0 0 Z " fill="#DF3966" transform="translate(47,89)"/>
<path d="M0 0 C4.455 0.99 4.455 0.99 9 2 C10.23076923 7.41538462 10.23076923 7.41538462 9.0625 10.375 C8.711875 10.91125 8.36125 11.4475 8 12 C7.67 11.01 7.34 10.02 7 9 C6.34 9 5.68 9 5 9 C3.61767557 7.37373596 2.28062485 5.7074998 1 4 C-0.32 5.32 -1.64 6.64 -3 8 C-3.66 7.01 -4.32 6.02 -5 5 C-3.625 3.5 -3.625 3.5 -2 2 C-1.34 2 -0.68 2 0 2 C0 1.34 0 0.68 0 0 Z " fill="#EA4843" transform="translate(115,67)"/>
<path d="M0 0 C0.66 0 1.32 0 2 0 C1.52870901 6.1199526 0.15939138 10.58985586 -2.6875 16 C-3.04328125 16.69480469 -3.3990625 17.38960937 -3.765625 18.10546875 C-6.4013746 23.14078966 -9.35399474 27.62479369 -13 32 C-13.33 31.01 -13.66 30.02 -14 29 C-13.34 28.34 -12.68 27.68 -12 27 C-11.29289322 25.35008418 -10.62056011 23.68437744 -10 22 C-9.34 22 -8.68 22 -8 22 C-8 21.01 -8 20.02 -8 19 C-7.34 18.67 -6.68 18.34 -6 18 C-5.26924352 15.6859378 -4.59861742 13.35171131 -4 11 C-3.34 11 -2.68 11 -2 11 C-1.34 7.37 -0.68 3.74 0 0 Z " fill="#44A4D1" transform="translate(179,106)"/>
<path d="M0 0 C3.3 0 6.6 0 10 0 C8.515 1.98 8.515 1.98 7 4 C4.3125 4.25 4.3125 4.25 2 4 C0.01243112 8.9026699 -0.37429811 13.48387248 -0.65625 18.70703125 C-0.7696875 19.46371094 -0.883125 20.22039062 -1 21 C-1.66 21.33 -2.32 21.66 -3 22 C-3 16.72 -3 11.44 -3 6 C-2.34 6 -1.68 6 -1 6 C-0.67 4.02 -0.34 2.04 0 0 Z " fill="#F14242" transform="translate(88,76)"/>
<path d="M0 0 C0.99 0.66 1.98 1.32 3 2 C3.60352743 5.87981918 3.31967746 7.52048381 1.125 10.8125 C-1.40846824 13.42048201 -2.27257807 13.9209324 -5.875 14.3125 C-9 14 -9 14 -11.375 12 C-11.91125 11.34 -12.4475 10.68 -13 10 C-10.69 10.33 -8.38 10.66 -6 11 C-5.7525 10.360625 -5.505 9.72125 -5.25 9.0625 C-4 7 -4 7 -1.875 6.25 C-1.25625 6.1675 -0.6375 6.085 0 6 C0 4.02 0 2.04 0 0 Z " fill="#E2584D" transform="translate(146,53)"/>
<path d="M0 0 C0.33 0 0.66 0 1 0 C1 1.65 1 3.3 1 5 C0.39800781 5.24105469 -0.20398438 5.48210937 -0.82421875 5.73046875 C-3.44752833 7.26112515 -4.29207134 8.70542492 -5.8125 11.3125 C-8.65435398 15.81876462 -11.4951114 18.20696906 -16 21 C-16.66 20.67 -17.32 20.34 -18 20 C-17.28714844 19.2265625 -16.57429688 18.453125 -15.83984375 17.65625 C-14.87217857 16.60436649 -13.90474635 15.55226865 -12.9375 14.5 C-12.43814941 13.95698242 -11.93879883 13.41396484 -11.42431641 12.85449219 C-7.95722143 9.07322318 -4.56411582 5.23814589 -1.2421875 1.328125 C-0.83226563 0.88984375 -0.42234375 0.4515625 0 0 Z " fill="#E5F4FB" transform="translate(52,159)"/>
<path d="M0 0 C0.66 0.99 1.32 1.98 2 3 C1.125 5.6875 1.125 5.6875 0 8 C-0.83144531 7.98839844 -1.66289062 7.97679688 -2.51953125 7.96484375 C-4.14955078 7.95130859 -4.14955078 7.95130859 -5.8125 7.9375 C-7.43091797 7.92009766 -7.43091797 7.92009766 -9.08203125 7.90234375 C-12.06512169 7.86375234 -12.06512169 7.86375234 -15 9 C-15 8.01 -15 7.02 -15 6 C-14.34 6 -13.68 6 -13 6 C-13.33 4.35 -13.66 2.7 -14 1 C-13.195625 1.495 -13.195625 1.495 -12.375 2 C-9.35724758 3.2706326 -7.25007259 3.33854923 -4 3 C-1.65738392 1.62073227 -1.65738392 1.62073227 0 0 Z " fill="#FEE8E8" transform="translate(147,63)"/>
<path d="M0 0 C2.45286296 3.67929445 2.23228878 5.47377907 2.1953125 9.85546875 C2.1924826 10.51710526 2.18965271 11.17874176 2.18673706 11.86042786 C2.17555918 13.96963737 2.15045981 16.07841925 2.125 18.1875 C2.11496707 19.61913448 2.10584176 21.05077564 2.09765625 22.48242188 C2.07562795 25.98841977 2.04111485 29.49416813 2 33 C0.515 33.495 0.515 33.495 -1 34 C-0.67 22.78 -0.34 11.56 0 0 Z " fill="#FEC2D5" transform="translate(133,79)"/>
<path d="M0 0 C0 1.65 0 3.3 0 5 C-1.65 5.33 -3.3 5.66 -5 6 C-5.33 7.32 -5.66 8.64 -6 10 C-11.75 9.125 -11.75 9.125 -14 8 C-14 7.34 -14 6.68 -14 6 C-12.35 5.67 -10.7 5.34 -9 5 C-9 4.34 -9 3.68 -9 3 C-8.34 3 -7.68 3 -7 3 C-7 2.34 -7 1.68 -7 1 C-4.53721199 -0.231394 -2.7204945 -0.07159196 0 0 Z " fill="#F1553B" transform="translate(147,55)"/>
<path d="M0 0 C1.28970703 -0.02449219 2.57941406 -0.04898437 3.90820312 -0.07421875 C11.44188883 -0.09731641 17.27046394 0.48132485 23.8125 4.375 C21.00577316 5.77836342 19.78382704 4.8660397 16.8125 3.9375 C5.61479559 0.99641619 -7.03781027 1.23739887 -18.1875 4.375 C-18.1875 3.715 -18.1875 3.055 -18.1875 2.375 C-12.72634234 -0.96890628 -6.18930501 0.00609484 0 0 Z " fill="#5CBFE1" transform="translate(106.1875,22.625)"/>
<path d="M0 0 C0.66 0 1.32 0 2 0 C3.36952673 2.73905345 3.12621361 4.97087332 3 8 C2.67 8.66 2.34 9.32 2 10 C1.95977609 12.3329866 1.95679753 14.66706666 2 17 C2.66 17.33 3.32 17.66 4 18 C3.71872579 19.48117801 3.42466268 20.95993249 3.125 22.4375 C2.96257813 23.26121094 2.80015625 24.08492187 2.6328125 24.93359375 C2.42398438 25.61550781 2.21515625 26.29742187 2 27 C1.34 27.33 0.68 27.66 0 28 C0 18.76 0 9.52 0 0 Z " fill="#E62450" transform="translate(60,85)"/>
<path d="M0 0 C-0.33 0.99 -0.66 1.98 -1 3 C-0.34 3 0.32 3 1 3 C1 3.99 1 4.98 1 6 C0.01 6 -0.98 6 -2 6 C-1.01 6.928125 -1.01 6.928125 0 7.875 C2 10 2 10 2 12 C-2.75 10.125 -2.75 10.125 -5 9 C-5 7.68 -5 6.36 -5 5 C-5.99 4.67 -6.98 4.34 -8 4 C-8 3.01 -8 2.02 -8 1 C-5.07175348 0.02391783 -3.04386724 -0.08226668 0 0 Z " fill="#1781C6" transform="translate(64,138)"/>
<path d="M0 0 C2.625 0.375 2.625 0.375 5 1 C5 1.99 5 2.98 5 4 C4.2575 4.28875 3.515 4.5775 2.75 4.875 C0.43260203 5.82302644 -1.77917115 6.84845911 -4 8 C-4 8.66 -4 9.32 -4 10 C-4.66 10 -5.32 10 -6 10 C-6 9.34 -6 8.68 -6 8 C-6.99 8.33 -7.98 8.66 -9 9 C-8.875 7.1875 -8.875 7.1875 -8 5 C-5.0625 3.375 -5.0625 3.375 -2 2 C-1.34 1.34 -0.68 0.68 0 0 Z " fill="#F59824" transform="translate(109,46)"/>
<path d="M0 0 C0 0.66 0 1.32 0 2 C-0.99 2.495 -0.99 2.495 -2 3 C-1.01 3.33 -0.02 3.66 1 4 C0.67 6.64 0.34 9.28 0 12 C-0.99 12 -1.98 12 -3 12 C-3.33 10.35 -3.66 8.7 -4 7 C-3.34 7 -2.68 7 -2 7 C-3.98 6.34 -5.96 5.68 -8 5 C-7.8125 3.125 -7.8125 3.125 -7 1 C-2.66666667 -1.33333333 -2.66666667 -1.33333333 0 0 Z " fill="#EA1A5B" transform="translate(63,113)"/>
<path d="M0 0 C1.32 0 2.64 0 4 0 C2.44552062 3.6020463 0.252552 6.16870103 -2.375 9.0625 C-3.14585938 9.91972656 -3.91671875 10.77695313 -4.7109375 11.66015625 C-6.7173198 13.71104874 -8.59704574 15.44063607 -11 17 C-11.66 17 -12.32 17 -13 17 C-13 16.01 -13 15.02 -13 14 C-11.35 13.67 -9.7 13.34 -8 13 C-7.938125 12.05125 -7.87625 11.1025 -7.8125 10.125 C-7.4103125 8.578125 -7.4103125 8.578125 -7 7 C-5.35448038 6.28272222 -3.68577711 5.61674772 -2 5 C-0.63921965 2.47627099 -0.63921965 2.47627099 0 0 Z " fill="#316EA6" transform="translate(35,173)"/>
<path d="M0 0 C0.66 0.33 1.32 0.66 2 1 C-1.09586031 4.57214651 -3.57122402 5.55213093 -8 7 C-10.10627692 8.29494065 -12.14273061 9.6561526 -14.16796875 11.07421875 C-14.77253906 11.37972656 -15.37710938 11.68523437 -16 12 C-16.99 11.67 -17.98 11.34 -19 11 C-17.30749327 9.48216478 -15.59526114 7.98630562 -13.875 6.5 C-12.44800781 5.24703125 -12.44800781 5.24703125 -10.9921875 3.96875 C-7.58352727 1.72597616 -5.97510721 1.77478146 -2 2 C-1.34 1.34 -0.68 0.68 0 0 Z " fill="#2378B3" transform="translate(48,140)"/>
<path d="M0 0 C0.33 0 0.66 0 1 0 C1.05883728 3.47909371 1.09387399 6.95805674 1.125 10.4375 C1.14175781 11.41138672 1.15851563 12.38527344 1.17578125 13.38867188 C1.21725154 19.58848075 0.57599699 25.00004295 -1 31 C-1.99 30.67 -2.98 30.34 -4 30 C-3.69255859 28.7625 -3.69255859 28.7625 -3.37890625 27.5 C-1.22976414 18.28645297 -0.35518729 9.43083499 0 0 Z " fill="#BE5678" transform="translate(167,77)"/>
<path d="M0 0 C0.79921875 0.01804687 1.5984375 0.03609375 2.421875 0.0546875 C3.02515625 0.07789062 3.6284375 0.10109375 4.25 0.125 C4.58 0.785 4.91 1.445 5.25 2.125 C4.13625 2.351875 3.0225 2.57875 1.875 2.8125 C-1.91038373 3.73123658 -1.91038373 3.73123658 -3.1875 6.75 C-3.373125 7.53375 -3.55875 8.3175 -3.75 9.125 C-4.08 8.135 -4.41 7.145 -4.75 6.125 C-6.76508358 5.39176204 -6.76508358 5.39176204 -8.75 5.125 C-8.75 4.135 -8.75 3.145 -8.75 2.125 C-5.68753253 0.34090198 -3.52920727 -0.10380021 0 0 Z " fill="#E44363" transform="translate(139.75,69.875)"/>
<path d="M0 0 C0.99 0.33 1.98 0.66 3 1 C2.70926678 3.81042113 2.18436938 4.83347282 0.0625 6.75 C-4.29729941 8.52950996 -8.35153438 8.24370596 -13 8 C-13.33 7.34 -13.66 6.68 -14 6 C-13.22914062 5.86722656 -12.45828125 5.73445313 -11.6640625 5.59765625 C-10.66117187 5.42105469 -9.65828125 5.24445312 -8.625 5.0625 C-7.62726563 4.88847656 -6.62953125 4.71445312 -5.6015625 4.53515625 C-3.03090344 4.12287938 -3.03090344 4.12287938 -1 3 C-0.67 2.01 -0.34 1.02 0 0 Z " fill="#EA8540" transform="translate(115,51)"/>
<path d="M0 0 C0.66 0.33 1.32 0.66 2 1 C2.0291544 4.39581516 2.04685068 7.79159786 2.0625 11.1875 C2.07087891 12.14720703 2.07925781 13.10691406 2.08789062 14.09570312 C2.09111328 15.02705078 2.09433594 15.95839844 2.09765625 16.91796875 C2.10289307 17.77156982 2.10812988 18.6251709 2.11352539 19.50463867 C1.99579323 22.09246747 1.57107044 24.47661953 1 27 C0.67 27 0.34 27 0 27 C-0.74440282 17.87247617 -1.25610227 9.12123495 0 0 Z " fill="#40AFD9" transform="translate(181,79)"/>
<path d="M0 0 C0.5775 0.515625 1.155 1.03125 1.75 1.5625 C3.87827523 3.26505193 3.87827523 3.26505193 6.25 2.6875 C7.11625 2.3471875 7.11625 2.3471875 8 2 C7.9375 3.75 7.9375 3.75 7 6 C5.23654678 7.02600915 3.46902849 8.04826808 1.65625 8.984375 C-0.46806859 10.28702319 -1.24421068 11.64865544 -2 14 C-2.21192221 8.80790596 -1.5912689 4.873261 0 0 Z " fill="#239DD8" transform="translate(37,63)"/>
<path d="M0 0 C0.7734375 0.61875 0.7734375 0.61875 1.5625 1.25 C1.2325 2.24 0.9025 3.23 0.5625 4.25 C-1.0875 3.92 -2.7375 3.59 -4.4375 3.25 C-4.4375 3.91 -4.4375 4.57 -4.4375 5.25 C-6.25 6.9375 -6.25 6.9375 -8.4375 8.25 C-9.4275 7.92 -10.4175 7.59 -11.4375 7.25 C-10.40745913 4.0454284 -8.82911457 2.61672309 -6.0625 0.875 C-2.4375 -0.75 -2.4375 -0.75 0 0 Z " fill="#1C92D1" transform="translate(145.4375,145.75)"/>
<path d="M0 0 C0 3.73120489 -1.18031476 5.78055689 -3 9 C-3.99 9.495 -3.99 9.495 -5 10 C-5.495 10.99 -5.99 11.98 -6.5 13 C-8 16 -8 16 -10 17 C-10.72159424 18.64363134 -11.39351421 20.31050386 -12 22 C-12.66 22 -13.32 22 -14 22 C-12.70358033 17.46253115 -10.96045219 14.19848658 -8.125 10.4375 C-7.44695313 9.52871094 -6.76890625 8.61992188 -6.0703125 7.68359375 C-4.07573274 5.09816678 -2.04991319 2.54170851 0 0 Z " fill="#51ACD6" transform="translate(52,36)"/>
<path d="M0 0 C0.33 0 0.66 0 1 0 C1.19590444 3.47874757 1.38031592 6.95800904 1.5625 10.4375 C1.61857422 11.43072266 1.67464844 12.42394531 1.73242188 13.44726562 C1.78076172 14.39150391 1.82910156 15.33574219 1.87890625 16.30859375 C1.9260376 17.18314209 1.97316895 18.05769043 2.02172852 18.95874023 C2 21 2 21 1 22 C0.75738335 24.25543624 0.61667867 26.50945523 0.4765625 28.7734375 C-0.08363037 31.39073204 -0.96995128 32.3173393 -3 34 C-2.11325763 26.52602861 -2.11325763 26.52602861 -1.5 23.67773438 C-1.01088848 21.0583129 -0.79783004 18.57804242 -0.68359375 15.91796875 C-0.64169922 14.98662109 -0.59980469 14.05527344 -0.55664062 13.09570312 C-0.49766602 11.65614258 -0.49766602 11.65614258 -0.4375 10.1875 C-0.39431641 9.20845703 -0.35113281 8.22941406 -0.30664062 7.22070312 C-0.2009774 4.81392973 -0.09887673 2.40706017 0 0 Z " fill="#B8E8F7" transform="translate(183,80)"/>
<path d="M0 0 C3.63 0 7.26 0 11 0 C8.19454486 2.10409135 6.1183382 3.54772046 3.0625 5 C-0.06322371 6.5190433 -3.04986209 8.1561638 -6 10 C-5.34 8.35 -4.68 6.7 -4 5 C-3.34 5 -2.68 5 -2 5 C-1.34 3.35 -0.68 1.7 0 0 Z " fill="#4AB8E2" transform="translate(73,28)"/>
<path d="M0 0 C1.32 0 2.64 0 4 0 C4 0.66 4 1.32 4 2 C8.455 2.99 8.455 2.99 13 4 C13 4.66 13 5.32 13 6 C14.3303125 5.87625 14.3303125 5.87625 15.6875 5.75 C19.69008159 6.05208163 21.12835434 7.29727467 24 10 C18.78080547 9.45131545 14.60993705 8.2393882 9.75 6.125 C8.54859375 5.61195313 7.3471875 5.09890625 6.109375 4.5703125 C3.46363979 3.23414974 1.85887663 2.24951012 0 0 Z " fill="#C54283" transform="translate(73,139)"/>
<path d="M0 0 C1.83979073 2.7596861 2.48323221 4.29741882 3.1875 7.4375 C3.36667969 8.19933594 3.54585937 8.96117188 3.73046875 9.74609375 C4.0154963 12.12958496 3.72875415 13.73104204 3 16 C1.68 16 0.36 16 -1 16 C-0.835 14.845 -0.67 13.69 -0.5 12.5 C0.03238311 8.30092197 0.07552446 4.22936959 0 0 Z " fill="#52BDE3" transform="translate(179,64)"/>
<path d="M0 0 C-7.22723857 3.94890355 -13.78892255 6.94636617 -22 8 C-21.34 7.34 -20.68 6.68 -20 6 C-19.01 6 -18.02 6 -17 6 C-17 5.34 -17 4.68 -17 4 C-15 3.33333333 -13 2.66666667 -11 2 C-10.23042969 1.72414062 -9.46085938 1.44828125 -8.66796875 1.1640625 C-7.87003906 0.88304687 -7.07210937 0.60203125 -6.25 0.3125 C-5.49203125 0.04050781 -4.7340625 -0.23148438 -3.953125 -0.51171875 C-2 -1 -2 -1 0 0 Z " fill="#B93B86" transform="translate(140,141)"/>
<path d="M0 0 C0.33 0 0.66 0 1 0 C1.08302368 0.91495239 1.08302368 0.91495239 1.16772461 1.84838867 C1.42155316 4.62835273 1.67948775 7.40792124 1.9375 10.1875 C2.02451172 11.14720703 2.11152344 12.10691406 2.20117188 13.09570312 C2.28818359 14.02705078 2.37519531 14.95839844 2.46484375 15.91796875 C2.543396 16.77156982 2.62194824 17.6251709 2.70288086 18.50463867 C3.00481544 21.0404426 3.46631375 23.50359947 4 26 C3.01 25.67 2.02 25.34 1 25 C-1.89355202 16.75337674 -0.77551188 8.54111052 0 0 Z " fill="#4F9ECC" transform="translate(42,84)"/>
<path d="M0 0 C0.66 0.33 1.32 0.66 2 1 C2.0809723 3.43816585 2.14046972 5.87364384 2.1875 8.3125 C2.22520508 9.34793945 2.22520508 9.34793945 2.26367188 10.40429688 C2.33834499 15.55674183 2.33834499 15.55674183 0.48828125 17.98046875 C-0.24841797 18.48513672 -0.24841797 18.48513672 -1 19 C-1.02690104 16.20826945 -1.04679053 13.41679652 -1.0625 10.625 C-1.07087891 9.8309375 -1.07925781 9.036875 -1.08789062 8.21875 C-1.11328125 2.2265625 -1.11328125 2.2265625 0 0 Z " fill="#F3B7B7" transform="translate(47,78)"/>
<path d="M0 0 C5.91354135 5.61028282 5.91354135 5.61028282 6.09765625 10.69921875 C6.08605469 11.68535156 6.07445312 12.67148438 6.0625 13.6875 C6.05347656 14.68136719 6.04445312 15.67523438 6.03515625 16.69921875 C6.02355469 17.45847656 6.01195312 18.21773437 6 19 C5.67 19 5.34 19 5 19 C4.67 15.7 4.34 12.4 4 9 C2.68 8.67 1.36 8.34 0 8 C0 5.36 0 2.72 0 0 Z " fill="#DF3755" transform="translate(124,71)"/>
<path d="M0 0 C0.79664062 0.49113281 0.79664062 0.49113281 1.609375 0.9921875 C4.62694157 2.2642989 6.98693023 2.1959363 10.25 2.125 C11.86648437 2.09792969 11.86648437 2.09792969 13.515625 2.0703125 C14.33546875 2.04710937 15.1553125 2.02390625 16 2 C16 2.66 16 3.32 16 4 C12.7 4.33 9.4 4.66 6 5 C6 5.66 6 6.32 6 7 C4.03533587 8.06775224 2.03144641 9.06553465 0 10 C-0.66 9.67 -1.32 9.34 -2 9 C-0.35 7.68 1.3 6.36 3 5 C2.2575 4.319375 2.2575 4.319375 1.5 3.625 C0 2 0 2 0 0 Z " fill="#FEE7D0" transform="translate(98,56)"/>
<path d="M0 0 C1.88856668 2.83285002 3.50546052 5.6948727 5.125 8.6875 C5.66382813 9.68136719 6.20265625 10.67523438 6.7578125 11.69921875 C7.16773438 12.45847656 7.57765625 13.21773437 8 14 C5 15 5 15 2 14 C1.855625 12.865625 1.71125 11.73125 1.5625 10.5625 C1.38828522 7.19222799 1.38828522 7.19222799 0 6 C-0.04080783 4.00041636 -0.04254356 1.99954746 0 0 Z " fill="#3D8DC4" transform="translate(47,113)"/>
<path d="M0 0 C0.66 1.32 1.32 2.64 2 4 C1.67 4.66 1.34 5.32 1 6 C-1.28515625 6.4140625 -1.28515625 6.4140625 -4.0625 6.625 C-4.98160156 6.69976562 -5.90070313 6.77453125 -6.84765625 6.8515625 C-7.91306641 6.92503906 -7.91306641 6.92503906 -9 7 C-9.33 6.01 -9.66 5.02 -10 4 C-6.7 2.68 -3.4 1.36 0 0 Z " fill="#F0AC22" transform="translate(107,42)"/>
<path d="M0 0 C2.475 0.99 2.475 0.99 5 2 C5 2.66 5 3.32 5 4 C5.87785156 4.39251953 5.87785156 4.39251953 6.7734375 4.79296875 C11.40201906 7.30214718 15.13418715 11.23073025 17.4375 15.9375 C17.623125 16.618125 17.80875 17.29875 18 18 C17.34 18 16.68 18 16 18 C15.401875 17.0925 14.80375 16.185 14.1875 15.25 C11.66907398 11.50833849 9.03830165 9.01915083 5 7 C5 6.34 5 5.68 5 5 C4.34 5 3.68 5 3 5 C3 4.34 3 3.68 3 3 C2.01 2.67 1.02 2.34 0 2 C0 1.34 0 0.68 0 0 Z " fill="#6BC5E7" transform="translate(152,28)"/>
<path d="M0 0 C0 3.25811062 -0.5522078 5.10441559 -2 8 C-2.99 8.33 -3.98 8.66 -5 9 C-5.33 9.99 -5.66 10.98 -6 12 C-7.32 12 -8.64 12 -10 12 C-9.49452628 7.91944849 -7.49911118 6.33727705 -4.4375 3.75 C-3.61121094 3.04359375 -2.78492188 2.3371875 -1.93359375 1.609375 C-1.29550781 1.07828125 -0.65742188 0.5471875 0 0 Z " fill="#236EA7" transform="translate(22,157)"/>
<path d="M0 0 C0 3.58912412 -0.66436554 4.10857029 -3 6.6875 C-3.556875 7.31011719 -4.11375 7.93273437 -4.6875 8.57421875 C-5.120625 9.04472656 -5.55375 9.51523438 -6 10 C-6.99 9.67 -7.98 9.34 -9 9 C-9 9.66 -9 10.32 -9 11 C-11.64 11.33 -14.28 11.66 -17 12 C-14.04954224 9.04954224 -10.41629014 7.53237578 -6.7265625 5.6328125 C-4.02968556 4.01777731 -2.11151556 2.31165921 0 0 Z " fill="#D5F1FA" transform="translate(157,146)"/>
<path d="M0 0 C5.98993047 -0.3152595 9.63560356 0.31780178 15 3 C13.68 3.33 12.36 3.66 11 4 C11 4.66 11 5.32 11 6 C6.49197399 4.74194623 3.5087188 3.09592835 0 0 Z " fill="#E6E6F4" transform="translate(72,143)"/>
<path d="M0 0 C0 0.33 0 0.66 0 1 C-1.670625 1.4021875 -1.670625 1.4021875 -3.375 1.8125 C-7.21840951 2.65809019 -7.21840951 2.65809019 -9 6 C-9.24055468 8.05709596 -9.24055468 8.05709596 -9.125 10.1875 C-9.08375 11.445625 -9.0425 12.70375 -9 14 C-9.66 14 -10.32 14 -11 14 C-12.20776206 10.37671381 -12.40040892 7.80388473 -12 4 C-8.40618389 -0.24723722 -5.38045012 -0.42199609 0 0 Z " fill="#E9BA53" transform="translate(78,50)"/>
<path d="M0 0 C0.66 0.33 1.32 0.66 2 1 C-1.53903346 4.79182156 -1.53903346 4.79182156 -3.9375 5.875 C-7.09198874 7.59563022 -8.795024 10.18253067 -11 13 C-12.32 12.67 -13.64 12.34 -15 12 C-10.19200621 7.66656144 -5.33522342 3.6679661 0 0 Z " fill="#52B7DA" transform="translate(68,23)"/>
<path d="M0 0 C0 0.33 0 0.66 0 1 C-1.794375 1.12375 -1.794375 1.12375 -3.625 1.25 C-7.94708477 1.76652331 -10.40637528 3.55327679 -14 6 C-17.875 6.75 -17.875 6.75 -21 7 C-14.7441027 0.0222684 -8.92006 -0.42854381 0 0 Z " fill="#E98365" transform="translate(112,63)"/>
<path d="M0 0 C0 0.33 0 0.66 0 1 C-1.11375 1.12375 -2.2275 1.2475 -3.375 1.375 C-7.03103677 1.6465813 -7.03103677 1.6465813 -9 4 C-9.6425235 6.06874034 -9.6425235 6.06874034 -10 8 C-8.68 8 -7.36 8 -6 8 C-6 8.66 -6 9.32 -6 10 C-7.98 10.66 -9.96 11.32 -12 12 C-12.48 4.8 -12.48 4.8 -10.5 1.5 C-6.85991277 -0.68405234 -4.20345267 -0.28023018 0 0 Z " fill="#E36E4E" transform="translate(144,50)"/>
<path d="M0 0 C1.918125 0.4640625 1.918125 0.4640625 3.875 0.9375 C11.81252288 2.55482764 19.92785039 2.66585873 28 3 C28 3.33 28 3.66 28 4 C24.27089934 4.0582462 20.54191636 4.09367917 16.8125 4.125 C15.75740234 4.14175781 14.70230469 4.15851563 13.61523438 4.17578125 C12.08286133 4.18544922 12.08286133 4.18544922 10.51953125 4.1953125 C9.11344604 4.21102295 9.11344604 4.21102295 7.67895508 4.22705078 C4.78369188 3.98166713 2.62937303 3.20521619 0 2 C0 1.34 0 0.68 0 0 Z " fill="#2D7EB1" transform="translate(88,151)"/>
<path d="M0 0 C0.66 0.33 1.32 0.66 2 1 C0.02 1.99 0.02 1.99 -2 3 C-2 3.66 -2 4.32 -2 5 C-2.93972656 5.09087891 -2.93972656 5.09087891 -3.8984375 5.18359375 C-4.71570313 5.26738281 -5.53296875 5.35117188 -6.375 5.4375 C-7.18710938 5.51871094 -7.99921875 5.59992188 -8.8359375 5.68359375 C-11.04272805 5.89090114 -11.04272805 5.89090114 -13 7 C-15.00800456 6.71887936 -17.01014051 6.38932033 -19 6 C-19 5.67 -19 5.34 -19 5 C-18.04738281 4.80664062 -17.09476562 4.61328125 -16.11328125 4.4140625 C-14.23189453 4.02347656 -14.23189453 4.02347656 -12.3125 3.625 C-11.07113281 3.36976563 -9.82976562 3.11453125 -8.55078125 2.8515625 C-5.06663225 2.11235151 -5.06663225 2.11235151 -2.16796875 0.8359375 C-1.45253906 0.56007812 -0.73710937 0.28421875 0 0 Z " fill="#F9D7ED" transform="translate(133,144)"/>
<path d="M0 0 C0.33 0 0.66 0 1 0 C2.32 5.94 3.64 11.88 5 18 C4.01 18.33 3.02 18.66 2 19 C0.26044666 12.56986533 -0.24991456 6.65050424 0 0 Z " fill="#CD5166" transform="translate(47,89)"/>
<path d="M0 0 C0.66 0 1.32 0 2 0 C0.61263874 3.15624686 -1.00392708 5.19863433 -3.5 7.5625 C-5.72096733 9.67524223 -7.27742417 11.41613626 -9 14 C-9.66 14 -10.32 14 -11 14 C-9.57442379 10.82096506 -7.8226848 8.46341568 -5.5 5.875 C-4.8915625 5.19179688 -4.283125 4.50859375 -3.65625 3.8046875 C-2.46695076 2.50880012 -1.24373566 1.24373566 0 0 Z " fill="#D9F6FD" transform="translate(66,38)"/>
<path d="M0 0 C0 0.66 0 1.32 0 2 C0.99 2 1.98 2 3 2 C1.84826645 4.46800047 0.95216435 6.04783565 -1 8 C-3 6.6875 -3 6.6875 -5 5 C-5 4.01 -5 3.02 -5 2 C-2 0 -2 0 0 0 Z " fill="#41C3F3" transform="translate(155,34)"/>
<path d="M0 0 C1.19882813 0.00483398 1.19882813 0.00483398 2.421875 0.00976562 C3.246875 0.01814453 4.071875 0.02652344 4.921875 0.03515625 C5.76234375 0.03966797 6.6028125 0.04417969 7.46875 0.04882812 C9.53648901 0.06057664 11.60419124 0.07851103 13.671875 0.09765625 C13.671875 0.42765625 13.671875 0.75765625 13.671875 1.09765625 C12.68445313 1.15824219 11.69703125 1.21882813 10.6796875 1.28125 C9.39835937 1.36503906 8.11703125 1.44882812 6.796875 1.53515625 C5.52070312 1.61636719 4.24453125 1.69757812 2.9296875 1.78125 C-0.21112652 1.88971652 -0.21112652 1.88971652 -2.328125 3.09765625 C-4.03515235 3.16761639 -5.74480503 3.18205779 -7.453125 3.16015625 C-8.36320312 3.15113281 -9.27328125 3.14210938 -10.2109375 3.1328125 C-10.90960938 3.12121094 -11.60828125 3.10960937 -12.328125 3.09765625 C-8.1875786 0.87950639 -4.69550366 -0.03353931 0 0 Z " fill="#D0F8FD" transform="translate(102.328125,23.90234375)"/>
<path d="M0 0 C0.66 0 1.32 0 2 0 C4.40929552 5.63433678 4.23079831 10.8689111 4.125 16.875 C4.11597656 17.84953125 4.10695312 18.8240625 4.09765625 19.828125 C4.07421623 22.21900728 4.04140442 24.60937261 4 27 C3.67 27 3.34 27 3 27 C2.95101562 25.88882813 2.90203125 24.77765625 2.8515625 23.6328125 C2.46083081 15.60431402 1.98094455 7.82761584 0 0 Z " fill="#64C0E2" transform="translate(169,67)"/>
<path d="M0 0 C0 0.33 0 0.66 0 1 C-1.65 1 -3.3 1 -5 1 C-5.268125 1.61875 -5.53625 2.2375 -5.8125 2.875 C-7 5 -7 5 -10 7 C-10.99 6.67 -11.98 6.34 -13 6 C-13 4 -13 4 -11.5625 1.875 C-7.83399538 -0.85317411 -4.47410256 -0.34416174 0 0 Z " fill="#F35B35" transform="translate(113,65)"/>
<path d="M0 0 C1.32 0.66 2.64 1.32 4 2 C3.34 3.98 2.68 5.96 2 8 C0.68 7.67 -0.64 7.34 -2 7 C-2.33 5.68 -2.66 4.36 -3 3 C-2.34 3 -1.68 3 -1 3 C-0.67 2.01 -0.34 1.02 0 0 Z " fill="#F09928" transform="translate(71,57)"/>
<path d="M0 0 C1.32 0 2.64 0 4 0 C4 0.66 4 1.32 4 2 C4.66 2 5.32 2 6 2 C7.00496852 5.01490557 7.10335303 7.04181692 7.0625 10.1875 C7.05347656 11.08855469 7.04445313 11.98960938 7.03515625 12.91796875 C7.02355469 13.60503906 7.01195313 14.29210937 7 15 C5.35 15.33 3.7 15.66 2 16 C2.495 15.154375 2.99 14.30875 3.5 13.4375 C5.14747708 9.66203168 5.24430947 7.07182452 5 3 C2.525 2.01 2.525 2.01 0 1 C0 0.67 0 0.34 0 0 Z " fill="#FDEDCD" transform="translate(78,50)"/>
<path d="M0 0 C4.34170523 2.3836813 8.2064129 4.78119883 12 8 C9.03 7.505 9.03 7.505 6 7 C6 6.34 6 5.68 6 5 C4.68 5.33 3.36 5.66 2 6 C1.67 5.01 1.34 4.02 1 3 C0.34 3 -0.32 3 -1 3 C-0.67 2.01 -0.34 1.02 0 0 Z " fill="#3286BE" transform="translate(64,138)"/>
<path d="M0 0 C1.0326802 2.78823655 1.04509293 3.8677274 0.0625 6.75 C-0.288125 7.4925 -0.63875 8.235 -1 9 C-1.66 9 -2.32 9 -3 9 C-3.4021875 10.11375 -3.4021875 10.11375 -3.8125 11.25 C-4.94229421 13.86636554 -6.20893202 15.80187111 -8 18 C-8.66 17.67 -9.32 17.34 -10 17 C-9.52949219 16.35933594 -9.05898437 15.71867188 -8.57421875 15.05859375 C-5.0595797 10.17593784 -2.08772202 5.64913018 0 0 Z " fill="#57A9D4" transform="translate(167,113)"/>
<path d="M0 0 C0.99 0.33 1.98 0.66 3 1 C2.46930939 4.82097239 1.50298434 7.06171403 -1 10 C-1 9.01 -1 8.02 -1 7 C-2.32 6.67 -3.64 6.34 -5 6 C-4.360625 5.38125 -3.72125 4.7625 -3.0625 4.125 C-0.96116416 2.17402388 -0.96116416 2.17402388 0 0 Z " fill="#C63D77" transform="translate(162,107)"/>
<path d="M0 0 C0.99 0.33 1.98 0.66 3 1 C2.88658363 3.31309705 2.75896193 5.62550185 2.625 7.9375 C2.52058594 9.86916016 2.52058594 9.86916016 2.4140625 11.83984375 C2.27742188 12.88269531 2.14078125 13.92554687 2 15 C1.01 15.495 1.01 15.495 0 16 C0 10.72 0 5.44 0 0 Z " fill="#E62F4A" transform="translate(85,82)"/>
<path d="M0 0 C1.05584327 3.45957158 0.72111427 5.45881666 -0.38671875 8.91796875 C-1.5523282 12.87510146 -2.23397322 16.94983714 -3 21 C-3.33 21 -3.66 21 -4 21 C-4.5939348 13.42733125 -2.43286286 7.12481267 0 0 Z " fill="#C7EBFA" transform="translate(47,64)"/>
<path d="M0 0 C3.3 0 6.6 0 10 0 C9.67 0.99 9.34 1.98 9 3 C10.32 3.66 11.64 4.32 13 5 C10.51458657 6.24270671 9.23584621 5.95365685 6.5 5.625 C5.7059375 5.53476563 4.911875 5.44453125 4.09375 5.3515625 C2 5 2 5 0 4 C0 2.66666667 0 1.33333333 0 0 Z " fill="#FEE3CF" transform="translate(70,66)"/>
<path d="M0 0 C1.65 1.32 3.3 2.64 5 4 C1.50875983 6.32749345 0.10777749 6.50299316 -4 6 C-6.375 4 -6.375 4 -8 2 C-5.69 2.33 -3.38 2.66 -1 3 C-0.67 2.01 -0.34 1.02 0 0 Z " fill="#DD5052" transform="translate(141,61)"/>
<path d="M0 0 C1.32 0.33 2.64 0.66 4 1 C3.319375 1.5878125 3.319375 1.5878125 2.625 2.1875 C-1.42054832 6.69984236 -1.19478198 11.25393164 -1 17 C-1.66 16.67 -2.32 16.34 -3 16 C-3.37952295 9.80112515 -2.8352113 5.5522888 0 0 Z " fill="#FEF9D9" transform="translate(96,35)"/>
<path d="M0 0 C0.99 0.66 1.98 1.32 3 2 C3.29296875 4.6015625 3.29296875 4.6015625 3.1875 7.625 C3.16042969 8.62789062 3.13335937 9.63078125 3.10546875 10.6640625 C3.07066406 11.43492188 3.03585938 12.20578125 3 13 C2.67 13 2.34 13 2 13 C1.67 10.69 1.34 8.38 1 6 C-2.13349732 4.95550089 -2.98968256 5.06576355 -6 6 C-5.34 5.01 -4.68 4.02 -4 3 C-2.68 3 -1.36 3 0 3 C0 2.01 0 1.02 0 0 Z " fill="#EAB13B" transform="translate(117,38)"/>
<path d="M0 0 C1.32 0.33 2.64 0.66 4 1 C4.93065133 3.60582371 5.14917407 4.64198224 4.0625 7.25 C3.711875 7.8275 3.36125 8.405 3 9 C2.67 8.01 2.34 7.02 2 6 C1.34 6 0.68 6 0 6 C-0.66 4.68 -1.32 3.36 -2 2 C-1.34 1.67 -0.68 1.34 0 1 C0 0.67 0 0.34 0 0 Z " fill="#EE3348" transform="translate(120,70)"/>
<path d="M0 0 C0.66 0.66 1.32 1.32 2 2 C1.47599609 3.21236328 1.47599609 3.21236328 0.94140625 4.44921875 C0.48636719 5.51785156 0.03132813 6.58648437 -0.4375 7.6875 C-0.88996094 8.74324219 -1.34242187 9.79898438 -1.80859375 10.88671875 C-2.85447455 13.61972529 -3.53520748 16.12042337 -4 19 C-4.33 19 -4.66 19 -5 19 C-5.1799928 13.78020872 -4.97094808 9.92737019 -3 5 C-2.34 5 -1.68 5 -1 5 C-0.67 3.35 -0.34 1.7 0 0 Z " fill="#42A2D1" transform="translate(48,58)"/>
<path d="M0 0 C0.99 1.65 1.98 3.3 3 5 C-1.29 4.34 -5.58 3.68 -10 3 C-10 2.34 -10 1.68 -10 1 C-3.32684825 -0.52529183 -3.32684825 -0.52529183 0 0 Z " fill="#FEF0EA" transform="translate(114,60)"/>
<path d="M0 0 C-0.33 1.65 -0.66 3.3 -1 5 C-6.75 4.125 -6.75 4.125 -9 3 C-9 2.34 -9 1.68 -9 1 C-6.04335481 -0.4783226 -3.25770263 -0.06032783 0 0 Z " fill="#EF4C42" transform="translate(142,60)"/>
<path d="M0 0 C0.66 0.33 1.32 0.66 2 1 C-0.15317287 10.17286652 -0.15317287 10.17286652 -3.6875 13.625 C-4.450625 14.07875 -5.21375 14.5325 -6 15 C-5.67 13.68 -5.34 12.36 -5 11 C-4.34 11 -3.68 11 -3 11 C-3 10.01 -3 9.02 -3 8 C-2.34 8 -1.68 8 -1 8 C-1.20625 7.05125 -1.4125 6.1025 -1.625 5.125 C-1.74875 4.09375 -1.8725 3.0625 -2 2 C-1.34 1.34 -0.68 0.68 0 0 Z " fill="#357EB1" transform="translate(54,148)"/>
<path d="M0 0 C2.05078125 0.03255208 4.1015625 0.06510417 6.15234375 0.09765625 C3.08933373 3.16066627 -0.63850475 3.52434079 -4.84765625 4.09765625 C-7.91015625 3.72265625 -7.91015625 3.72265625 -9.84765625 3.09765625 C-9.84765625 2.76765625 -9.84765625 2.43765625 -9.84765625 2.09765625 C-8.71328125 1.95328125 -7.57890625 1.80890625 -6.41015625 1.66015625 C-3.51115113 1.2024186 -2.54328457 0.13442307 0 0 Z " fill="#E6F6FE" transform="translate(123.84765625,148.90234375)"/>
<path d="M0 0 C3.3125 -0.25 3.3125 -0.25 7 0 C7.99 1.32 8.98 2.64 10 4 C6.04 4 2.08 4 -2 4 C-1.34 2.68 -0.68 1.36 0 0 Z " fill="#FAF5C6" transform="translate(104,31)"/>
<path d="M0 0 C0 2 0 2 -1.4375 3.75 C-5.44452368 5.7046457 -8.86932754 4.22684503 -13 3 C-13 2.67 -13 2.34 -13 2 C-11.20873548 1.66451233 -9.41697413 1.33167645 -7.625 1 C-6.62726563 0.814375 -5.62953125 0.62875 -4.6015625 0.4375 C-2 0 -2 0 0 0 Z " fill="#4593C4" transform="translate(127,151)"/>
<path d="M0 0 C2.46800047 1.15173355 4.04783565 2.04783565 6 4 C5.21625 3.95875 4.4325 3.9175 3.625 3.875 C0.83883881 3.71271266 0.83883881 3.71271266 -1 6 C-1.64767793 8.57061311 -1.64767793 8.57061311 -2 11 C-2.66 10.67 -3.32 10.34 -4 10 C-2.25 2.25 -2.25 2.25 0 0 Z " fill="#CFE8F8" transform="translate(57,147)"/>
<path d="M0 0 C0.66 0 1.32 0 2 0 C0.54955729 4.10958767 -1.51110752 7.43258745 -4 11 C-4.99 10.67 -5.98 10.34 -7 10 C-6.67 9.34 -6.34 8.68 -6 8 C-5.34 8 -4.68 8 -4 8 C-3.67 6.68 -3.34 5.36 -3 4 C-2.34 4 -1.68 4 -1 4 C-0.67 2.68 -0.34 1.36 0 0 Z " fill="#EAF8FC" transform="translate(164,116)"/>
<path d="M0 0 C0.66 0 1.32 0 2 0 C1.67 6.93 1.34 13.86 1 21 C0.67 21 0.34 21 0 21 C-0.19592461 17.68794116 -0.38032746 14.37534146 -0.5625 11.0625 C-0.61857422 10.11697266 -0.67464844 9.17144531 -0.73242188 8.19726562 C-0.78076172 7.29814453 -0.82910156 6.39902344 -0.87890625 5.47265625 C-0.9260376 4.64000244 -0.97316895 3.80734863 -1.02172852 2.94946289 C-1 1 -1 1 0 0 Z " fill="#D74049" transform="translate(79,78)"/>
<path d="M0 0 C1.65 0 3.3 0 5 0 C5.66 1.98 6.32 3.96 7 6 C6.34 6 5.68 6 5 6 C4.67 7.32 4.34 8.64 4 10 C2.68 6.7 1.36 3.4 0 0 Z " fill="#FEDDDF" transform="translate(126,72)"/>
<path d="M0 0 C0.99 0.66 1.98 1.32 3 2 C2.34 4.64 1.68 7.28 1 10 C0.34 9.67 -0.32 9.34 -1 9 C-1.66 9.66 -2.32 10.32 -3 11 C-2.53199289 6.94393835 -2.12046792 3.53411321 0 0 Z " fill="#FEDEDA" transform="translate(84,72)"/>
<path d="M0 0 C0.33 0.66 0.66 1.32 1 2 C-3.13194444 6.86111111 -3.13194444 6.86111111 -7.125 7.5 C-10 7 -10 7 -13 4 C-9.7 4.33 -6.4 4.66 -3 5 C-3 4.01 -3 3.02 -3 2 C-2.01 1.34 -1.02 0.68 0 0 Z " fill="#DF9247" transform="translate(82,60)"/>
<path d="M0 0 C0.66 0.66 1.32 1.32 2 2 C-0.97 1.67 -3.94 1.34 -7 1 C-7.33 1.99 -7.66 2.98 -8 4 C-9.98 4 -11.96 4 -14 4 C-12 1 -12 1 -10.375 0.3125 C-6.84680387 -0.15173633 -3.56437317 -0.17246967 0 0 Z " fill="#E4D43A" transform="translate(112,34)"/>
<path d="M0 0 C1.65 0 3.3 0 5 0 C5.268125 0.804375 5.53625 1.60875 5.8125 2.4375 C6.204375 3.283125 6.59625 4.12875 7 5 C7.99 5.33 8.98 5.66 10 6 C10 6.99 10 7.98 10 9 C6.78956118 7.61811547 4.95063635 6.07578097 2.75 3.375 C2.22921875 2.74335938 1.7084375 2.11171875 1.171875 1.4609375 C0.78515625 0.97882813 0.3984375 0.49671875 0 0 Z " fill="#CE3073" transform="translate(61,128)"/>
<path d="M0 0 C0.33 0 0.66 0 1 0 C0.63118644 6.14689273 -0.90050429 8.69027374 -5 13 C-5.33 12.01 -5.66 11.02 -6 10 C-5.34 9.34 -4.68 8.68 -4 8 C-3.29289322 6.35008418 -2.62056011 4.68437744 -2 3 C-1.34 3 -0.68 3 0 3 C0 2.01 0 1.02 0 0 Z " fill="#369FCD" transform="translate(171,125)"/>
<path d="M0 0 C2.97 0.495 2.97 0.495 6 1 C6 1.99 6 2.98 6 4 C3.34771188 5.07525194 0.71631546 6.09456151 -2 7 C-1.34 4.69 -0.68 2.38 0 0 Z " fill="#EFB81A" transform="translate(111,37)"/>
<path d="M0 0 C2.03833424 1.2739589 4.03852126 2.61061923 6 4 C6 4.66 6 5.32 6 6 C4.68 6 3.36 6 2 6 C1.67 6.66 1.34 7.32 1 8 C0.87625 7.360625 0.7525 6.72125 0.625 6.0625 C0.315625 5.0415625 0.315625 5.0415625 0 4 C-0.66 3.67 -1.32 3.34 -2 3 C-1.34 2.01 -0.68 1.02 0 0 Z " fill="#D61870" transform="translate(154,112)"/>
<path d="M0 0 C0.66 0 1.32 0 2 0 C3.39935013 2.79870027 3.25265405 4.90498792 3 8 C2.01 8.99 1.02 9.98 0 11 C0 7.37 0 3.74 0 0 Z " fill="#ED3841" transform="translate(60,85)"/>
<path d="M0 0 C0.66 0.33 1.32 0.66 2 1 C-0.68058098 4.57410797 -3.42589203 7.31941902 -7 10 C-7 6.04435836 -5.59478606 4.89133304 -3 2 C-2.01 1.34 -1.02 0.68 0 0 Z " fill="#E57F64" transform="translate(68,71)"/>
<path d="M0 0 C2.0625 2.3125 2.0625 2.3125 4 5 C3.67 5.99 3.34 6.98 3 8 C2.46375 7.360625 1.9275 6.72125 1.375 6.0625 C-1.44367193 3.61470596 -3.33860732 3.33285388 -7 3 C-4.38058783 1.25372522 -2.96175123 0.61277612 0 0 Z " fill="#FADDD0" transform="translate(145,47)"/>
<path d="M0 0 C0.33 0 0.66 0 1 0 C1.13277344 0.68707031 1.26554688 1.37414062 1.40234375 2.08203125 C1.57894531 2.98308594 1.75554688 3.88414062 1.9375 4.8125 C2.11152344 5.70582031 2.28554687 6.59914062 2.46484375 7.51953125 C2.97741153 10.11397171 2.97741153 10.11397171 4 13 C4.66 13.33 5.32 13.66 6 14 C1.125 13.125 1.125 13.125 0 12 C-0.07244053 9.98035801 -0.08377188 7.95832876 -0.0625 5.9375 C-0.05347656 4.83277344 -0.04445313 3.72804687 -0.03515625 2.58984375 C-0.02355469 1.73519531 -0.01195312 0.88054687 0 0 Z " fill="#D6E9F7" transform="translate(5,175)"/>
<path d="M0 0 C2.1875 0.3125 2.1875 0.3125 4 1 C4 1.99 4 2.98 4 4 C2.02 4.33 0.04 4.66 -2 5 C-2.33 4.34 -2.66 3.68 -3 3 C-1.75 1.4375 -1.75 1.4375 0 0 Z " fill="#C81985" transform="translate(136,136)"/>
<path d="M0 0 C1.32 0 2.64 0 4 0 C4.66 1.98 5.32 3.96 6 6 C5.01 6.33 4.02 6.66 3 7 C0 3.375 0 3.375 0 0 Z " fill="#29B1E3" transform="translate(55,36)"/>
<path d="M0 0 C1.32 0.33 2.64 0.66 4 1 C2.8803014 2.00593243 1.7540588 3.0045849 0.625 4 C-0.00148437 4.556875 -0.62796875 5.11375 -1.2734375 5.6875 C-3 7 -3 7 -5 7 C-5.33 6.01 -5.66 5.02 -6 4 C-5.38125 3.896875 -4.7625 3.79375 -4.125 3.6875 C-1.63473516 3.12474627 -1.63473516 3.12474627 0 0 Z " fill="#BB317F" transform="translate(145,133)"/>
<path d="M0 0 C2.00841268 0.01421885 4.01537247 0.13420475 6.01953125 0.265625 C6.34953125 0.925625 6.67953125 1.585625 7.01953125 2.265625 C2.26953125 3.265625 2.26953125 3.265625 0.01953125 3.265625 C-1.65012326 3.58365443 -3.31725393 3.91547451 -4.98046875 4.265625 C-3.72152968 1.74774686 -2.88459378 0.38688832 0 0 Z " fill="#EE6E39" transform="translate(138.98046875,50.734375)"/>
<path d="M0 0 C0.99 0 1.98 0 3 0 C1.18690997 3.77727089 -0.9073259 7.37269822 -3 11 C-4.125 7.25 -4.125 7.25 -3 5 C-2.34 5 -1.68 5 -1 5 C-0.67 3.35 -0.34 1.7 0 0 Z " fill="#DAF9FD" transform="translate(43,43)"/>
<path d="M0 0 C1.32 0.33 2.64 0.66 4 1 C2.90716423 2.03295436 1.80029421 3.05107835 0.6875 4.0625 C0.07261719 4.63097656 -0.54226562 5.19945312 -1.17578125 5.78515625 C-1.77777344 6.18605469 -2.37976563 6.58695313 -3 7 C-3.99 6.67 -4.98 6.34 -6 6 C-6 5.34 -6 4.68 -6 4 C-5.38125 3.896875 -4.7625 3.79375 -4.125 3.6875 C-1.63473516 3.12474627 -1.63473516 3.12474627 0 0 Z " fill="#4499C8" transform="translate(156,144)"/>
<path d="M0 0 C-1 3 -1 3 -3.9375 4.6875 C-7 6 -7 6 -9 6 C-9 5.34 -9 4.68 -9 4 C-2.25 0 -2.25 0 0 0 Z " fill="#E4F6FC" transform="translate(140,143)"/>
<path d="M0 0 C0.7425 0.0825 1.485 0.165 2.25 0.25 C2.25 1.24 2.25 2.23 2.25 3.25 C-0.06 3.25 -2.37 3.25 -4.75 3.25 C-4.75 3.91 -4.75 4.57 -4.75 5.25 C-5.41 4.92 -6.07 4.59 -6.75 4.25 C-3.42692308 0.31153846 -3.42692308 0.31153846 0 0 Z " fill="#F4B31D" transform="translate(75.75,50.75)"/>
<path d="M0 0 C0 0.99 0 1.98 0 3 C-4.455 3.495 -4.455 3.495 -9 4 C-8.67 3.01 -8.34 2.02 -8 1 C-5.07175348 0.02391783 -3.04386724 -0.08226668 0 0 Z " fill="#FCF4D1" transform="translate(78,47)"/>
<path d="M0 0 C0.33 1.32 0.66 2.64 1 4 C-1.97 6.475 -1.97 6.475 -5 9 C-5.66 8.67 -6.32 8.34 -7 8 C-4.69 5.36 -2.38 2.72 0 0 Z " fill="#D9EEF8" transform="translate(41,171)"/>
<path d="M0 0 C0.99 0.33 1.98 0.66 3 1 C0.36 2.98 -2.28 4.96 -5 7 C-5.33 5.35 -5.66 3.7 -6 2 C-4.7934375 1.7834375 -4.7934375 1.7834375 -3.5625 1.5625 C-1.07896294 1.25864751 -1.07896294 1.25864751 0 0 Z " fill="#DAEFFA" transform="translate(23,154)"/>
<path d="M0 0 C0.33 0 0.66 0 1 0 C1.33 2.64 1.66 5.28 2 8 C1.01 8.33 0.02 8.66 -1 9 C-2.1875 7.3125 -2.1875 7.3125 -3 5 C-1.6875 2.25 -1.6875 2.25 0 0 Z " fill="#0D79BF" transform="translate(51,148)"/>
<path d="M0 0 C0.99 0.33 1.98 0.66 3 1 C-0.96 4.465 -0.96 4.465 -5 8 C-5.33 7.01 -5.66 6.02 -6 5 C-4.68 4.34 -3.36 3.68 -2 3 C-2 2.34 -2 1.68 -2 1 C-1.34 0.67 -0.68 0.34 0 0 Z " fill="#D9F2FC" transform="translate(32,146)"/>
<path d="M0 0 C2.52588702 2.36292656 3.88820837 3.66462511 5 7 C5.66 7.33 6.32 7.66 7 8 C6.67 8.66 6.34 9.32 6 10 C3.69 8.02 1.38 6.04 -1 4 C-0.67 2.68 -0.34 1.36 0 0 Z " fill="#D8EBF7" transform="translate(61,130)"/>
<path d="M0 0 C2.475 0.99 2.475 0.99 5 2 C5 2.99 5 3.98 5 5 C3.35 5 1.7 5 0 5 C-0.33 4.34 -0.66 3.68 -1 3 C-0.67 2.01 -0.34 1.02 0 0 Z " fill="#CC197D" transform="translate(145,128)"/>
<path d="M0 0 C2.18145244 2.25667494 2.48003345 3.79968444 2.8125 6.875 C2.1525 6.545 1.4925 6.215 0.8125 5.875 C0.8125 5.215 0.8125 4.555 0.8125 3.875 C0.02875 3.58625 -0.755 3.2975 -1.5625 3 C-4.1875 1.875 -4.1875 1.875 -6.1875 -0.125 C-3.5304971 -1.16882257 -2.59074837 -1.33238488 0 0 Z " fill="#FBD8D8" transform="translate(123.1875,65.125)"/>
<path d="M0 0 C8.86956522 0.73913043 8.86956522 0.73913043 12 4 C12 4.66 12 5.32 12 6 C7.96479403 4.41037341 3.98188718 2.71767682 0 1 C0 0.67 0 0.34 0 0 Z " fill="#60C1E2" transform="translate(131,28)"/>
<path d="M0 0 C4.75207471 -0.43200679 7.78210698 1.01510917 12 3 C7.47907032 4.45606519 4.48351204 3.27032841 0 2 C0 1.34 0 0.68 0 0 Z " fill="#C7E9F5" transform="translate(86,149)"/>
<path d="M0 0 C2.6855594 2.6855594 3.06049974 5.37621328 4 9 C2.68 9 1.36 9 0 9 C0 6.03 0 3.06 0 0 Z " fill="#FCDBE3" transform="translate(49,108)"/>
<path d="M0 0 C3.12270126 2.51830747 3.94523098 3.7261549 4.75 7.75 C4.8325 8.8225 4.915 9.895 5 11 C0 4.63636364 0 4.63636364 0 0 Z " fill="#3C89B7" transform="translate(37,116)"/>
<path d="M0 0 C3.44216672 2.6598561 3.99504674 5.90288286 5 10 C4.01 10 3.02 10 2 10 C0.68373308 6.38026598 0 3.90432869 0 0 Z " fill="#FEDFE4" transform="translate(50,98)"/>
<path d="M0 0 C0.33 0 0.66 0 1 0 C1 2.64 1 5.28 1 8 C1.99 8.33 2.98 8.66 4 9 C4.6875 11.0625 4.6875 11.0625 5 13 C2 12 2 12 0 9 C-0.1953125 6.73828125 -0.1953125 6.73828125 -0.125 4.3125 C-0.10695313 3.50425781 -0.08890625 2.69601563 -0.0703125 1.86328125 C-0.04710938 1.24839844 -0.02390625 0.63351563 0 0 Z " fill="#E7A43F" transform="translate(96,44)"/>
<path d="M0 0 C6.625 -0.25 6.625 -0.25 10 2 C5.545 2.495 5.545 2.495 1 3 C0.67 2.01 0.34 1.02 0 0 Z " fill="#F4E9F6" transform="translate(83,147)"/>
<path d="M0 0 C0.33 0.99 0.66 1.98 1 3 C-0.98 4.98 -2.96 6.96 -5 9 C-5.66 8.67 -6.32 8.34 -7 8 C-4.69 5.36 -2.38 2.72 0 0 Z " fill="#DAF3FB" transform="translate(166,137)"/>
<path d="M0 0 C0.99 0 1.98 0 3 0 C3 1.98 3 3.96 3 6 C1.35 5.67 -0.3 5.34 -2 5 C-1.67 4.360625 -1.34 3.72125 -1 3.0625 C0.07271225 1.23205433 0.07271225 1.23205433 0 0 Z " fill="#EA264F" transform="translate(147,74)"/>
<path d="M0 0 C0.66 0.66 1.32 1.32 2 2 C1.6875 4.3125 1.6875 4.3125 1 7 C0.814375 7.928125 0.62875 8.85625 0.4375 9.8125 C0.293125 10.534375 0.14875 11.25625 0 12 C-0.33 12 -0.66 12 -1 12 C-1.14285714 3.42857143 -1.14285714 3.42857143 0 0 Z " fill="#54A7D2" transform="translate(33,70)"/>
<path d="M0 0 C0.99 0 1.98 0 3 0 C1.6302836 3.99500618 -0.25722422 6.80009492 -3 10 C-2.39009109 6.44219804 -1.4216319 3.3171411 0 0 Z " fill="#4BACD4" transform="translate(53,48)"/>
<path d="M0 0 C3.06393013 -0.25532751 4.63233212 -0.21861333 7.3125 1.375 C7.869375 1.91125 8.42625 2.4475 9 3 C9 3.66 9 4.32 9 5 C5.54074837 3.7508258 2.85306797 2.32472205 0 0 Z " fill="#D2F5FD" transform="translate(139,19)"/>
<path d="M0 0 C2.64 0 5.28 0 8 0 C8 0.66 8 1.32 8 2 C8.66 2 9.32 2 10 2 C10 2.66 10 3.32 10 4 C6.7 3.01 3.4 2.02 0 1 C0 0.67 0 0.34 0 0 Z " fill="#D7F7FC" transform="translate(128,15)"/>
<path d="M0 0 C0 3 0 3 -2.5 5.6875 C-3.325 6.450625 -4.15 7.21375 -5 8 C-5.99 7.67 -6.98 7.34 -8 7 C-5.36 4.69 -2.72 2.38 0 0 Z " fill="#3B81AF" transform="translate(37,144)"/>
<path d="M0 0 C0 1.65 0 3.3 0 5 C-0.66 5 -1.32 5 -2 5 C-2 4.34 -2 3.68 -2 3 C-3.65 3 -5.3 3 -7 3 C-7.33 2.34 -7.66 1.68 -8 1 C-5.23735711 0.40267181 -2.83967231 0 0 0 Z " fill="#CE216D" transform="translate(79,136)"/>
<path d="M0 0 C1.98 0.99 1.98 0.99 4 2 C3.67 3.65 3.34 5.3 3 7 C2.34 6.67 1.68 6.34 1 6 C0.375 2.9375 0.375 2.9375 0 0 Z " fill="#D43D5D" transform="translate(50,107)"/>
<path d="M0 0 C0.95465783 2.16967689 1.14401212 3.56328793 0.3984375 5.82421875 C-0.35870385 7.5684743 -1.17609198 9.28627131 -2 11 C-3.09658936 7.71023192 -2.79953138 6.28696233 -2 3 C-1.34 3 -0.68 3 0 3 C0 2.01 0 1.02 0 0 Z " fill="#E4F9FD" transform="translate(169,104)"/>
<path d="M0 0 C2.475 0.495 2.475 0.495 5 1 C5 1.66 5 2.32 5 3 C6.65 3 8.3 3 10 3 C10 3.33 10 3.66 10 4 C7.25 4.25 7.25 4.25 4 4 C1.625 2 1.625 2 0 0 Z " fill="#507CAC" transform="translate(10,187)"/>
<path d="M0 0 C0 3.20395416 -0.74335022 5.09399739 -2 8 C-4 7 -4 7 -6 5 C-4.02 3.35 -2.04 1.7 0 0 Z " fill="#3176AC" transform="translate(22,157)"/>
<path d="M0 0 C0.99 0.99 1.98 1.98 3 3 C2.01 4.485 2.01 4.485 1 6 C0.01 5.67 -0.98 5.34 -2 5 C-1.34 3.35 -0.68 1.7 0 0 Z " fill="#ECF8F6" transform="translate(42,129)"/>
<path d="M0 0 C0.99 0.66 1.98 1.32 3 2 C2.75 3.875 2.75 3.875 2 6 C-0.0625 7.25 -0.0625 7.25 -2 8 C-1.34 5.36 -0.68 2.72 0 0 Z " fill="#52B3E3" transform="translate(170,104)"/>
<path d="M0 0 C0.66 0.66 1.32 1.32 2 2 C0.68 3.32 -0.64 4.64 -2 6 C-2.33 4.68 -2.66 3.36 -3 2 C-2.01 1.34 -1.02 0.68 0 0 Z " fill="#EA5840" transform="translate(63,79)"/>
<path d="M0 0 C1.65 1.65 3.3 3.3 5 5 C4.67 5.66 4.34 6.32 4 7 C2.68 6.34 1.36 5.68 0 5 C0 3.35 0 1.7 0 0 Z " fill="#DF4869" transform="translate(150,74)"/>
<path d="M0 0 C0.33 0 0.66 0 1 0 C1.36923077 5.53846154 1.36923077 5.53846154 -0.5 7.875 C-1.2425 8.431875 -1.2425 8.431875 -2 9 C-1.125 1.125 -1.125 1.125 0 0 Z " fill="#3A9EC9" transform="translate(36,63)"/>
<path d="M0 0 C1.9375 0.5625 1.9375 0.5625 4 2 C4.75 5.625 4.75 5.625 5 9 C3 6 3 6 3 4 C2.01 4 1.02 4 0 4 C0 2.68 0 1.36 0 0 Z " fill="#E8B354" transform="translate(79,51)"/>
<path d="M0 0 C-4.455 1.485 -4.455 1.485 -9 3 C-9 2.01 -9 1.02 -9 0 C-5.32431536 -0.91892116 -3.83619425 -0.95904856 0 0 Z " fill="#5BBBE1" transform="translate(84,29)"/>
</svg>
